<svg xmlns="http://www.w3.org/2000/svg" xmlns:xlink="http://www.w3.org/1999/xlink" xmlns:lucid="lucid" width="2224.12" height="1403.31"><g transform="translate(330.3930776661623 305.50004999999646)" lucid:page-tab-id="1dCH2-dZFRyI"><path d="M-500-500h2500v2000H-500z" fill="#fff"/><path d="M515.62-221a6 6 0 0 1 6-6h773.1a6 6 0 0 1 6 6v405.92a6 6 0 0 1-6 6h-773.1a6 6 0 0 1-6-6z" stroke="#3a414a" fill="#dfe3e8"/><path d="M515.62-299a6 6 0 0 1 6-6h663a6 6 0 0 1 6 6v66a6 6 0 0 1-6 6h-663a6 6 0 0 1-6-6z" stroke="#000" stroke-opacity="0" fill="#fff" fill-opacity="0"/><use xlink:href="#a" transform="matrix(1,0,0,1,520.620829469507,-300.00004999999646) translate(0 49.402777777777764)"/><use xlink:href="#b" transform="matrix(1,0,0,1,520.620829469507,-300.00004999999646) translate(109.67881944444441 49.402777777777764)"/><path d="M1235.67 523.22c-56.36 0-102.05-44.4-102.05-99.14 0-43.8 27.63-80.74 70.52-94.28-2.5-128.77 167.6-153.55 235.65-103.98 34-74.35 204.1-49.57 204.1 24.78 102.07-24.78 204.13 74.35 136.1 198.27 68.03 99.13 0 223.05-136.1 173.48-34 64.44-170.1 64.44-204.1 0-68.05 49.57-204.13 24.78-204.13-99.13zM488.3 795.92c-58.04 0-105.07-46.57-105.07-104 0-45.95 28.44-84.7 72.6-98.9-2.56-135.1 172.53-161.1 242.57-109.1 35.02-78 210.12-52 210.12 26 105.06-26 210.12 78 140.08 208 70.04 104 0 234-140.08 182-35.02 67.6-175.1 67.6-210.12 0-70.04 52-210.1 26-210.1-104z" stroke="#000" fill="#f7f4e4"/><path d="M-280 285.92a6 6 0 0 1 6-6h613.1a6 6 0 0 1 6 6V714a6 6 0 0 1-6 6H-274a6 6 0 0 1-6-6z" stroke="#3a414a" fill="#dfe3e8"/><path d="M-207.4 482.08h295" stroke="#3a414a" stroke-width="5" stroke-linecap="round" fill="none"/><path d="M1133.62-166.83a6 6 0 0 1 6-6h13a6 6 0 0 0 6-6v-13a6 6 0 0 1 6-6h38a6 6 0 0 1 6 6v13a6 6 0 0 0 6 6h13a6 6 0 0 1 6 6v38a6 6 0 0 1-6 6h-13a6 6 0 0 0-6 6v13a6 6 0 0 1-6 6h-38a6 6 0 0 1-6-6v-13a6 6 0 0 0-6-6h-13a6 6 0 0 1-6-6z" stroke="#1071e5" stroke-width="2" fill="#edf5ff"/><use xlink:href="#c" transform="matrix(1,0,0,1,1138.616066171909,-192.83345833332504) translate(21.75347222222223 56.94444444444443)"/><path d="M90.1 558.92a6 6 0 0 1 6-6h13a6 6 0 0 0 6-6v-13a6 6 0 0 1 6-6h38a6 6 0 0 1 6 6v13a6 6 0 0 0 6 6h13a6 6 0 0 1 6 6v38a6 6 0 0 1-6 6h-13a6 6 0 0 0-6 6v13a6 6 0 0 1-6 6h-38a6 6 0 0 1-6-6v-13a6 6 0 0 0-6-6h-13a6 6 0 0 1-6-6z" stroke="#1071e5" stroke-width="2" fill="#edf5ff"/><use xlink:href="#d" transform="matrix(1,0,0,1,95.10692233383759,532.916641666668) translate(21.03298611111112 56.94444444444443)"/><path d="M535.73-21.58h695.4" stroke="#3a414a" stroke-width="5" stroke-linecap="round" fill="none"/><path d="M1132.12-147.83h-94.83a6 6 0 0 0-6 6v117.25" stroke="#3a414a" fill="none"/><path d="M1132.62-147.36h-.52v-.95h.52z" stroke="#3a414a" stroke-width=".05" fill="#3a414a"/><path d="M1031.3-24.6v3.52M88.6 577.92H26.1a6 6 0 0 1-6-6v-86.84" stroke="#3a414a" fill="none"/><path d="M89.1 578.4h-.5v-.96h.5z" stroke="#3a414a" stroke-width=".05" fill="#3a414a"/><path d="M20.1 485.1v-3.52M-128.9 380.58h59.67a6 6 0 0 1 6 6v92.5" stroke="#3a414a" fill="none"/><path d="M-128.88 381.06h-.5v-.95h.5z" stroke="#3a414a" stroke-width=".05" fill="#3a414a"/><path d="M-63.23 479.07v3.5" stroke="#3a414a" fill="none"/><path d="M963.62-13.08a6 6 0 0 1 6-6h228a6 6 0 0 1 6 6v48a6 6 0 0 1-6 6h-228a6 6 0 0 1-6-6z" stroke="#000" stroke-opacity="0" fill="#fff" fill-opacity="0"/><use xlink:href="#e" transform="matrix(1,0,0,1,968.6160661719091,-14.08345833332504) translate(66.44856770833334 34.02777777777778)"/><path d="M-229.9 490.58a6 6 0 0 1 6-6h228a6 6 0 0 1 6 6v48a6 6 0 0 1-6 6h-228a6 6 0 0 1-6-6z" stroke="#000" stroke-opacity="0" fill="#fff" fill-opacity="0"/><use xlink:href="#f" transform="matrix(1,0,0,1,-224.89307766616238,489.5833083333348) translate(68.73263888888889 34.02777777777778)"/><path d="M1323.23 57.92a6 6 0 0 1 6-6h228a6 6 0 0 1 6 6v48a6 6 0 0 1-6 6h-228a6 6 0 0 1-6-6z" stroke="#000" stroke-opacity="0" fill="#fff" fill-opacity="0"/><use xlink:href="#g" transform="matrix(1,0,0,1,1328.2264109994956,56.91664166666828) translate(59.460720486111114 34.02777777777778)"/><path d="M-129.9 325.58a6 6 0 0 1 6-6h58a6 6 0 0 1 6 6v48a6 6 0 0 1-6 6h-58a6 6 0 0 1-6-6z" stroke="#000" stroke-opacity="0" fill="#fff" fill-opacity="0"/><use xlink:href="#h" transform="matrix(1,0,0,1,-124.89307766616241,324.5833083333348) translate(6.003689236111111 34.02777777777778)"/><path d="M683.23-188.08a6 6 0 0 1 6-6h68a6 6 0 0 1 6 6v108a6 6 0 0 1-6 6h-68a6 6 0 0 1-6-6z" stroke="#3a414a" fill="#dfe3e8"/><path d="M701.45-179.8H745v43.57h-43.55z" fill="url(#i)"/><use xlink:href="#j" transform="matrix(1,0,0,1,688.2264109994956,-189.08345833332504) translate(10.800781250000007 45.624999999999986)"/><use xlink:href="#k" transform="matrix(1,0,0,1,688.2264109994956,-189.08345833332504) translate(8.847656250000007 94.02343749999997)"/><path d="M764.23-134.08h88.85a6 6 0 0 1 6 6v103.5" stroke="#000" fill="none"/><path d="M764.24-133.6h-.5v-.96h.5z" stroke="#000" stroke-width=".05"/><path d="M859.08-24.6v3.52" stroke="#000" fill="none"/><path d="M762.45-161.08a6 6 0 0 1 6-6h41.8a6 6 0 0 1 6 6v37.25a6 6 0 0 1-6 6h-41.8a6 6 0 0 1-6-6z" stroke="#000" stroke-opacity="0" fill="#fff" fill-opacity="0"/><use xlink:href="#l" transform="matrix(1,0,0,1,767.4471006546689,-162.08340833332835) translate(8.376953125 29.02777777777778)"/><path d="M1230.73 292.92a6 6 0 0 1 6-6h13a6 6 0 0 0 6-6v-13a6 6 0 0 1 6-6h38a6 6 0 0 1 6 6v13a6 6 0 0 0 6 6h13a6 6 0 0 1 6 6v38a6 6 0 0 1-6 6h-13a6 6 0 0 0-6 6v13a6 6 0 0 1-6 6h-38a6 6 0 0 1-6-6v-13a6 6 0 0 0-6-6h-13a6 6 0 0 1-6-6z" stroke="#1071e5" stroke-width="2" fill="#edf5ff"/><use xlink:href="#m" transform="matrix(1,0,0,1,1235.7264109994956,266.9166416666683) translate(23.098958333333343 56.94444444444443)"/><path d="M1500.73 232.92a6 6 0 0 1 6-6h13a6 6 0 0 0 6-6v-13a6 6 0 0 1 6-6h38a6 6 0 0 1 6 6v13a6 6 0 0 0 6 6h13a6 6 0 0 1 6 6v38a6 6 0 0 1-6 6h-13a6 6 0 0 0-6 6v13a6 6 0 0 1-6 6h-38a6 6 0 0 1-6-6v-13a6 6 0 0 0-6-6h-13a6 6 0 0 1-6-6z" stroke="#1071e5" stroke-width="2" fill="#edf5ff"/><use xlink:href="#n" transform="matrix(1,0,0,1,1505.7264109994958,206.91664166666828) translate(24.86979166666667 56.94444444444443)"/><path d="M1646.45 455.42a6 6 0 0 1 6-6h13a6 6 0 0 0 6-6v-13a6 6 0 0 1 6-6h38a6 6 0 0 1 6 6v13a6 6 0 0 0 6 6h13a6 6 0 0 1 6 6v38a6 6 0 0 1-6 6h-13a6 6 0 0 0-6 6v13a6 6 0 0 1-6 6h-38a6 6 0 0 1-6-6v-13a6 6 0 0 0-6-6h-13a6 6 0 0 1-6-6z" stroke="#1071e5" stroke-width="2" fill="#edf5ff"/><use xlink:href="#o" transform="matrix(1,0,0,1,1651.4490167481179,429.4166416666683) translate(22.52604166666667 56.94444444444443)"/><path d="M-329.9 207.92a6 6 0 0 1 6-6h663a6 6 0 0 1 6 6v66a6 6 0 0 1-6 6h-663a6 6 0 0 1-6-6z" stroke="#000" stroke-opacity="0" fill="#fff" fill-opacity="0"/><use xlink:href="#p" transform="matrix(1,0,0,1,-324.8930776661623,206.91664166666834) translate(0 49.402777777777764)"/><use xlink:href="#q" transform="matrix(1,0,0,1,-324.8930776661623,206.91664166666834) translate(196.26736111111103 49.402777777777764)"/><path d="M1233.62 645.42a6 6 0 0 1 6-6h507.6a6 6 0 0 1 6 6v133a6 6 0 0 1-6 6h-507.6a6 6 0 0 1-6-6z" stroke="#000" stroke-opacity="0" fill="#fff" fill-opacity="0"/><use xlink:href="#r" transform="matrix(1,0,0,1,1238.616066171909,644.4166416666682) translate(0 57.902777777777764)"/><use xlink:href="#s" transform="matrix(1,0,0,1,1238.616066171909,644.4166416666682) translate(109.3489583333333 57.902777777777764)"/><use xlink:href="#t" transform="matrix(1,0,0,1,1238.616066171909,644.4166416666682) translate(0 108.99001736111109)"/><path d="M497.17 602.92a6 6 0 0 1 6-6h13a6 6 0 0 0 6-6v-13a6 6 0 0 1 6-6h38a6 6 0 0 1 6 6v13a6 6 0 0 0 6 6h13a6 6 0 0 1 6 6v38a6 6 0 0 1-6 6h-13a6 6 0 0 0-6 6v13a6 6 0 0 1-6 6h-38a6 6 0 0 1-6-6v-13a6 6 0 0 0-6-6h-13a6 6 0 0 1-6-6z" stroke="#1071e5" stroke-width="2" fill="#edf5ff"/><use xlink:href="#u" transform="matrix(1,0,0,1,502.17123858570227,576.9166416666683) translate(22.795138888888896 56.94444444444443)"/><path d="M767.17 542.92a6 6 0 0 1 6-6h13a6 6 0 0 0 6-6v-13a6 6 0 0 1 6-6h38a6 6 0 0 1 6 6v13a6 6 0 0 0 6 6h13a6 6 0 0 1 6 6v38a6 6 0 0 1-6 6h-13a6 6 0 0 0-6 6v13a6 6 0 0 1-6 6h-38a6 6 0 0 1-6-6v-13a6 6 0 0 0-6-6h-13a6 6 0 0 1-6-6z" stroke="#1071e5" stroke-width="2" fill="#edf5ff"/><use xlink:href="#v" transform="matrix(1,0,0,1,772.1712385857026,516.9166416666683) translate(23.758680555555564 56.94444444444443)"/><path d="M882.68 762.92a6 6 0 0 1 6-6h13a6 6 0 0 0 6-6v-13a6 6 0 0 1 6-6h38a6 6 0 0 1 6 6v13a6 6 0 0 0 6 6h13a6 6 0 0 1 6 6v38a6 6 0 0 1-6 6h-13a6 6 0 0 0-6 6v13a6 6 0 0 1-6 6h-38a6 6 0 0 1-6-6v-13a6 6 0 0 0-6-6h-13a6 6 0 0 1-6-6z" stroke="#1071e5" stroke-width="2" fill="#edf5ff"/><use xlink:href="#w" transform="matrix(1,0,0,1,887.6819530454843,736.9166416666683) translate(22.821180555555564 56.94444444444443)"/><path d="M443.23 336.25a6 6 0 0 1 6-6h448a6 6 0 0 1 6 6v135.67a6 6 0 0 1-6 6h-448a6 6 0 0 1-6-6z" stroke="#000" stroke-opacity="0" fill="#fff" fill-opacity="0"/><use xlink:href="#x" transform="matrix(1,0,0,1,448.2264109994954,335.25059078783397) translate(0 58.152777777777764)"/><use xlink:href="#y" transform="matrix(1,0,0,1,448.2264109994954,335.25059078783397) translate(114.56488715277774 58.152777777777764)"/><use xlink:href="#z" transform="matrix(1,0,0,1,448.2264109994954,335.25059078783397) translate(0 109.24001736111109)"/><path d="M-209.9 325.58a6 6 0 0 1 6-6h68a6 6 0 0 1 6 6v110a6 6 0 0 1-6 6h-68a6 6 0 0 1-6-6z" stroke="#3a414a" fill="#dfe3e8"/><path d="M-195.3 330.9h50.82v50.83h-50.82z" fill="url(#A)"/><use xlink:href="#B" transform="matrix(1,0,0,1,-204.8930776661624,324.5833083333348) translate(6.767578125000014 48.70833333333331)"/><use xlink:href="#C" transform="matrix(1,0,0,1,-204.8930776661624,324.5833083333348) translate(8.465169270833346 105.17317708333329)"/><path d="M1551.12 59.75v140.67M1551.12 59.76v-3.5" stroke="#3a414a" fill="none"/><path d="M1551.6 200.92h-.96v-.52h.95z" stroke="#3a414a" stroke-width=".05" fill="#3a414a"/><path d="M1381.12 551.25a6 6 0 0 1 6-6h13a6 6 0 0 0 6-6v-13a6 6 0 0 1 6-6h38a6 6 0 0 1 6 6v13a6 6 0 0 0 6 6h13a6 6 0 0 1 6 6v38a6 6 0 0 1-6 6h-13a6 6 0 0 0-6 6v13a6 6 0 0 1-6 6h-38a6 6 0 0 1-6-6v-13a6 6 0 0 0-6-6h-13a6 6 0 0 1-6-6z" stroke="#1071e5" stroke-width="2" fill="#edf5ff"/><use xlink:href="#D" transform="matrix(1,0,0,1,1386.116066171909,525.2499750000015) translate(22.717013888888896 56.94444444444443)"/><path d="M653.62 817.92a6 6 0 0 1 6-6h13a6 6 0 0 0 6-6v-13a6 6 0 0 1 6-6h38a6 6 0 0 1 6 6v13a6 6 0 0 0 6 6h13a6 6 0 0 1 6 6v38a6 6 0 0 1-6 6h-13a6 6 0 0 0-6 6v13a6 6 0 0 1-6 6h-38a6 6 0 0 1-6-6v-13a6 6 0 0 0-6-6h-13a6 6 0 0 1-6-6z" stroke="#1071e5" stroke-width="2" fill="#edf5ff"/><use xlink:href="#E" transform="matrix(1,0,0,1,658.6160661719091,791.9166416666683) translate(23.012152777777786 56.94444444444443)"/><path d="M1696.13 423.03l-117.2-143.63" stroke="#000" fill="none"/><path d="M1697.06 423.42h-1.22l-.08-.1.73-.6zM1579.3 279.1l-.72.6-.32-.37.53-.46.2-.13z" stroke="#000" stroke-width=".05"/><path d="M1644.98 493l-162.4 58.66" stroke="#000" fill="none"/><path d="M1645.45 493.34l-.32.12-.33-.9.65-.23zM1482.76 552.1l-.64.24v-1l.32-.13z" stroke="#000" stroke-width=".05"/><path d="M1404.9 525.23l-97.97-168.3" stroke="#000" fill="none"/><path d="M1405.2 525.15l-.08 1.06v.33l-.63-1.07.73-.43zM1307.35 356.7l-.74.44.04-.13.1-1.04v-.33z" stroke="#000" stroke-width=".05"/><path d="M1332.2 300.48l167.04-37.12" stroke="#000" fill="none"/><path d="M1332.33 300.94l-.6.13v-.97l.4-.1zM1499.73 263.74l-.4.08-.2-.92.6-.14z" stroke="#000" stroke-width=".05"/><path d="M1531.4 303.38l-80.95 215.4" stroke="#000" fill="none"/><path d="M1531.7 302.92h.37l-.24.63-.9-.33.14-.35zM1450.9 518.95l-.13.35-.62-.05h-.38l.24-.64z" stroke="#000" stroke-width=".05"/><path d="M1645.05 454.33L1332.12 332" stroke="#000" fill="none"/><path d="M1645.6 454.03l-.07.3-.05.67-.6-.24.33-.88zM1332.3 331.57l-.34.88-.4-.15.08-.3.06-.67z" stroke="#000" stroke-width=".05"/><path d="M842.4 609.95l65.06 123.93" stroke="#000" fill="none"/><path d="M842.82 609.74l-.84.44-.1-.2.53-.88.04-.08zM907.98 733.85l-.54.9-.03.06-.37-.7.85-.45z" stroke="#000" stroke-width=".05"/><path d="M881.2 794.28l-126.1 30.27" stroke="#000" fill="none"/><path d="M881.68 794.65l-.4.1-.2-.93.6-.15zM755.23 825l-.6.16v-.98l.37-.1z" stroke="#000" stroke-width=".05"/><path d="M677.32 800.78L573.46 658.05" stroke="#000" fill="none"/><path d="M677.62 802l-.7-.95.7-.5zM573.86 657.78l-.7.5v-1.44z" stroke="#000" stroke-width=".05"/><path d="M765.68 573.36l-167.02 37.12" stroke="#000" fill="none"/><path d="M766.17 573.74l-.4.1-.2-.94.6-.14zM598.77 610.94l-.6.13v-.97l.4-.1z" stroke="#000" stroke-width=".05"/><path d="M796.04 613.1l-71.3 172.64" stroke="#000" fill="none"/><path d="M796 612.58l.7.16-.23.55-.88-.38.18-.44zM725.2 785.9l-.2.45-.22-.1-.7-.16.23-.55z" stroke="#000" stroke-width=".05"/><path d="M598.32 643.15l283.2 117.54" stroke="#000" fill="none"/><path d="M598.52 642.7l-.37.9-.45-.2.13-.32.14-.6zM882.15 760.43l-.13.32-.14.6-.54-.23.36-.88z" stroke="#000" stroke-width=".05"/><path d="M379.5 621.92h116.17" stroke="#3a414a" fill="none"/><path d="M379.52 622.4h-.5v-.96h.5zM496.17 622.4h-.5v-.96h.5z" stroke="#3a414a" stroke-width=".05" fill="#3a414a"/><path d="M817.17 132.42v378" stroke="#3a414a" fill="none"/><path d="M817.65 132.43h-.95v-.5h.95zM817.65 510.92h-.95v-.52h.95z" stroke="#3a414a" stroke-width=".05" fill="#3a414a"/><path d="M817.17-18.58v48M817.17-18.57v-3.5" stroke="#3a414a" fill="none"/><path d="M817.65 29.92h-.95v-.52h.95z" stroke="#3a414a" stroke-width=".05" fill="#3a414a"/><path d="M1696.45 525.92v308a6 6 0 0 0 6 6h34.04a.08.08 0 0 1 .07.08.08.08 0 0 0 .1.08h37.86a2.17 2.17 0 0 0 2.17-2.16" stroke="#3a414a" fill="none"/><path d="M1696.92 525.93h-.95v-.5h.95z" stroke="#3a414a" stroke-width=".05" fill="#3a414a"/><path d="M1776.7 837.93v-3.5M984.18 781.92h130.13a6 6 0 0 1 6 6v203.16" stroke="#3a414a" fill="none"/><path d="M984.2 782.4h-.52v-.96h.52z" stroke="#3a414a" stroke-width=".05" fill="#3a414a"/><path d="M1120.3 991.07v3.5" stroke="#3a414a" fill="none"/><path d="M1096.12 368.75v292.78" stroke="#3a414a" stroke-width="5" stroke-linecap="round" fill="none"/><path d="M1280.73 363.42v50.15a6 6 0 0 1-6 6h-175.6" stroke="#3a414a" fill="none"/><path d="M1281.2 363.43h-.95v-.5h.95zM1099.13 420.05h-.5v-.95h.5z" stroke="#3a414a" stroke-width=".05" fill="#3a414a"/><path d="M1379.62 570.25h-280.5" stroke="#3a414a" fill="none"/><path d="M1380.12 570.73h-.52v-.96h.52zM1099.13 570.73h-.5v-.96h.5z" stroke="#3a414a" stroke-width=".05" fill="#3a414a"/><path d="M1093.12 561.92H868.66" stroke="#3a414a" fill="none"/><path d="M1093.62 562.4h-.52v-.96h.52zM868.68 562.4h-.5v-.96h.5z" stroke="#3a414a" stroke-width=".05" fill="#3a414a"/><path d="M1221.12-143.08a6 6 0 0 1 6-6h58a6 6 0 0 1 6 6v48a6 6 0 0 1-6 6h-58a6 6 0 0 1-6-6z" stroke="#000" stroke-opacity="0" fill="#fff" fill-opacity="0"/><use xlink:href="#F" transform="matrix(1,0,0,1,1226.116066171909,-144.08345833332504) translate(20.234375 34.02777777777778)"/><path d="M1063.62-143.08a6 6 0 0 1 6-6h58a6 6 0 0 1 6 6v48a6 6 0 0 1-6 6h-58a6 6 0 0 1-6-6z" stroke="#000" stroke-opacity="0" fill="#fff" fill-opacity="0"/><use xlink:href="#F" transform="matrix(1,0,0,1,1068.616066171909,-144.08345833332504) translate(20.234375 34.02777777777778)"/><path d="M40.1 525.58a6 6 0 0 1 6-6h58a6 6 0 0 1 6 6v48a6 6 0 0 1-6 6h-58a6 6 0 0 1-6-6z" stroke="#000" stroke-opacity="0" fill="#fff" fill-opacity="0"/><use xlink:href="#F" transform="matrix(1,0,0,1,45.10692233383753,524.5833083333348) translate(20.234375 34.02777777777778)"/><path d="M433.23 620.42a6 6 0 0 1 6-6h58a6 6 0 0 1 6 6v48a6 6 0 0 1-6 6h-58a6 6 0 0 1-6-6z" stroke="#000" stroke-opacity="0" fill="#fff" fill-opacity="0"/><use xlink:href="#G" transform="matrix(1,0,0,1,438.22641099949556,619.4166416666683) translate(24.114583333333336 28.541666666666664)"/><path d="M583.62 570.25a6 6 0 0 1 6-6h27.6a6 6 0 0 1 6 6v35.67a6 6 0 0 1-6 6h-27.6a6 6 0 0 1-6-6z" stroke="#000" stroke-opacity="0" fill="#fff" fill-opacity="0"/><use xlink:href="#G" transform="matrix(1,0,0,1,588.6160661719091,569.2499750000018) translate(9.114583333333336 24.791666666666664)"/><path d="M597.17 610.03a6 6 0 0 1 6-6h58a6 6 0 0 1 6 6v48a6 6 0 0 1-6 6h-58a6 6 0 0 1-6-6z" stroke="#000" stroke-opacity="0" fill="#fff" fill-opacity="0"/><use xlink:href="#G" transform="matrix(1,0,0,1,602.1712385857022,609.0299750000015) translate(24.114583333333336 28.541666666666664)"/><path d="M543.23 686.92a6 6 0 0 1 6-6h38a6 6 0 0 1 6 6v6.5a6 6 0 0 1-6 6h-38a6 6 0 0 1-6-6z" stroke="#000" stroke-opacity="0" fill="#fff" fill-opacity="0"/><use xlink:href="#G" transform="matrix(1,0,0,1,548.2264109994956,685.9166416666683) translate(14.114583333333336 12.916666666666663)"/><path d="M723.23 497.92a6 6 0 0 1 6-6h58a6 6 0 0 1 6 6v48a6 6 0 0 1-6 6h-58a6 6 0 0 1-6-6z" stroke="#000" stroke-opacity="0" fill="#fff" fill-opacity="0"/><use xlink:href="#H" transform="matrix(1,0,0,1,728.2264109994956,496.9166416666683) translate(24.401041666666668 28.541666666666664)"/><path d="M797.17 477.92a6 6 0 0 1 6-6h58a6 6 0 0 1 6 6v48a6 6 0 0 1-6 6h-58a6 6 0 0 1-6-6z" stroke="#000" stroke-opacity="0" fill="#fff" fill-opacity="0"/><use xlink:href="#H" transform="matrix(1,0,0,1,802.1712385857026,476.9166416666683) translate(24.401041666666668 28.541666666666664)"/><path d="M843.62 526.25a6 6 0 0 1 6-6h58a6 6 0 0 1 6 6v48a6 6 0 0 1-6 6h-58a6 6 0 0 1-6-6z" stroke="#000" stroke-opacity="0" fill="#fff" fill-opacity="0"/><use xlink:href="#H" transform="matrix(1,0,0,1,848.6160661719091,525.2499750000015) translate(24.401041666666668 28.541666666666664)"/><path d="M833.23 591.92a6 6 0 0 1 6-6h58a6 6 0 0 1 6 6v48a6 6 0 0 1-6 6h-58a6 6 0 0 1-6-6z" stroke="#000" stroke-opacity="0" fill="#fff" fill-opacity="0"/><use xlink:href="#H" transform="matrix(1,0,0,1,838.2264109994956,590.9166416666683) translate(24.401041666666668 28.541666666666664)"/><path d="M742.68 602.92a6 6 0 0 1 6-6h58a6 6 0 0 1 6 6v48a6 6 0 0 1-6 6h-58a6 6 0 0 1-6-6z" stroke="#000" stroke-opacity="0" fill="#fff" fill-opacity="0"/><use xlink:href="#H" transform="matrix(1,0,0,1,747.6819530454843,601.9166416666683) translate(24.401041666666668 28.541666666666664)"/><path d="M641.9 790.42a6 6 0 0 1 6-6h14.33a6 6 0 0 1 6 6v20.33a6 6 0 0 1-6 6H647.9a6 6 0 0 1-6-6z" stroke="#000" stroke-opacity="0" fill="#fff" fill-opacity="0"/><use xlink:href="#I" transform="matrix(1,0,0,1,646.8953765167362,789.4166416666685) translate(2.6210937500000018 15.791666666666663)"/><path d="M707.56 773.92a6 6 0 0 1 6-6h58a6 6 0 0 1 6 6v48a6 6 0 0 1-6 6h-58a6 6 0 0 1-6-6z" stroke="#000" stroke-opacity="0" fill="#fff" fill-opacity="0"/><use xlink:href="#I" transform="matrix(1,0,0,1,712.5608937581159,772.9166416666683) translate(24.12109375 28.541666666666664)"/><path d="M746.25 837.92a6 6 0 0 1 6-6h19.3a6 6 0 0 1 6 6v33a6 6 0 0 1-6 6h-19.3a6 6 0 0 1-6-6z" stroke="#000" stroke-opacity="0" fill="#fff" fill-opacity="0"/><use xlink:href="#I" transform="matrix(1,0,0,1,751.2539972063922,836.9166416666683) translate(5.121093750000002 21.916666666666664)"/><path d="M983.23 777.92a6 6 0 0 1 6-6h18.4a6 6 0 0 1 6 6v33a6 6 0 0 1-6 6h-18.4a6 6 0 0 1-6-6z" stroke="#000" stroke-opacity="0" fill="#fff" fill-opacity="0"/><use xlink:href="#J" transform="matrix(1,0,0,1,988.2264109994956,776.9166416666683) translate(4.604817708333335 21.916666666666664)"/><path d="M893.62 692.25a6 6 0 0 1 6-6h58a6 6 0 0 1 6 6v48a6 6 0 0 1-6 6h-58a6 6 0 0 1-6-6z" stroke="#000" stroke-opacity="0" fill="#fff" fill-opacity="0"/><use xlink:href="#J" transform="matrix(1,0,0,1,898.6160661719091,691.2499750000018) translate(24.104817708333336 28.541666666666664)"/><path d="M843.23 711.92a6 6 0 0 1 6-6h58a6 6 0 0 1 6 6v48a6 6 0 0 1-6 6h-58a6 6 0 0 1-6-6z" stroke="#000" stroke-opacity="0" fill="#fff" fill-opacity="0"/><use xlink:href="#J" transform="matrix(1,0,0,1,848.2264109994956,710.9166416666683) translate(24.104817708333336 28.541666666666664)"/><path d="M843.23 797.92a6 6 0 0 1 6-6h48a6 6 0 0 1 6 6v24a6 6 0 0 1-6 6h-48a6 6 0 0 1-6-6z" stroke="#000" stroke-opacity="0" fill="#fff" fill-opacity="0"/><use xlink:href="#J" transform="matrix(1,0,0,1,848.2264109994956,796.9166416666685) translate(19.104817708333336 17.791666666666664)"/><path d="M1543.23 182.25a6 6 0 0 1 6-6h33.72a6 6 0 0 1 6 6v13.67a6 6 0 0 1-6 6h-33.72a6 6 0 0 1-6-6z" stroke="#000" stroke-opacity="0" fill="#fff" fill-opacity="0"/><use xlink:href="#H" transform="matrix(1,0,0,1,1548.2264109994956,181.24997500000154) translate(12.401041666666668 14.916666666666663)"/><path d="M1576.45 267.92a6 6 0 0 1 6-6h58a6 6 0 0 1 6 6v48a6 6 0 0 1-6 6h-58a6 6 0 0 1-6-6z" stroke="#000" stroke-opacity="0" fill="#fff" fill-opacity="0"/><use xlink:href="#K" transform="matrix(1,0,0,1,1581.4490167481179,266.9166416666683) translate(24.401041666666668 28.541666666666664)"/><path d="M1508.8 307.92a6 6 0 0 1 6-6h55.65a6 6 0 0 1 6 6v16.33a6 6 0 0 1-6 6h-55.64a6 6 0 0 1-6-6z" stroke="#000" stroke-opacity="0" fill="#fff" fill-opacity="0"/><use xlink:href="#K" transform="matrix(1,0,0,1,1513.8108937581158,306.9166416666683) translate(23.401041666666668 14.104166666666663)"/><path d="M1448.95 218.25a6 6 0 0 1 6-6h58a6 6 0 0 1 6 6v48a6 6 0 0 1-6 6h-58a6 6 0 0 1-6-6z" stroke="#000" stroke-opacity="0" fill="#fff" fill-opacity="0"/><use xlink:href="#H" transform="matrix(1,0,0,1,1453.9490167481179,217.24997500000177) translate(24.401041666666668 28.541666666666664)"/><path d="M1294.13 257.92a6 6 0 0 1 6-6h58a6 6 0 0 1 6 6v48a6 6 0 0 1-6 6h-58a6 6 0 0 1-6-6z" stroke="#000" stroke-opacity="0" fill="#fff" fill-opacity="0"/><use xlink:href="#G" transform="matrix(1,0,0,1,1299.1267806316912,256.9166416666683) translate(24.114583333333336 28.541666666666664)"/><path d="M1323.23 307.92a6 6 0 0 1 6-6h58a6 6 0 0 1 6 6v48a6 6 0 0 1-6 6h-58a6 6 0 0 1-6-6z" stroke="#000" stroke-opacity="0" fill="#fff" fill-opacity="0"/><use xlink:href="#G" transform="matrix(1,0,0,1,1328.2264109994956,306.9166416666683) translate(24.114583333333336 28.541666666666664)"/><path d="M1300.73 348.92a6 6 0 0 1 6-6h58a6 6 0 0 1 6 6v48a6 6 0 0 1-6 6h-58a6 6 0 0 1-6-6z" stroke="#000" stroke-opacity="0" fill="#fff" fill-opacity="0"/><use xlink:href="#L" transform="matrix(1,0,0,1,1305.7264109994956,347.9166416666683) translate(24.114583333333336 28.541666666666664)"/><path d="M1233.62 372.25a6 6 0 0 1 6-6h45.5a6 6 0 0 1 6 6v13.67a6 6 0 0 1-6 6h-45.5a6 6 0 0 1-6-6z" stroke="#000" stroke-opacity="0" fill="#fff" fill-opacity="0"/><use xlink:href="#G" transform="matrix(1,0,0,1,1238.616066171909,371.24997500000177) translate(18.114583333333336 14.916666666666663)"/><path d="M1323.23 531.92a6 6 0 0 1 6-6h58a6 6 0 0 1 6 6v48a6 6 0 0 1-6 6h-58a6 6 0 0 1-6-6z" stroke="#000" stroke-opacity="0" fill="#fff" fill-opacity="0"/><use xlink:href="#I" transform="matrix(1,0,0,1,1328.2264109994956,530.9166416666683) translate(24.12109375 28.541666666666664)"/><path d="M1438.8 477.92a6 6 0 0 1 6-6h58a6 6 0 0 1 6 6v48a6 6 0 0 1-6 6h-58a6 6 0 0 1-6-6z" stroke="#000" stroke-opacity="0" fill="#fff" fill-opacity="0"/><use xlink:href="#I" transform="matrix(1,0,0,1,1443.8108937581158,476.9166416666683) translate(24.12109375 28.541666666666664)"/><path d="M1463.23 542.92a6 6 0 0 1 6-6h58a6 6 0 0 1 6 6v48a6 6 0 0 1-6 6h-58a6 6 0 0 1-6-6z" stroke="#000" stroke-opacity="0" fill="#fff" fill-opacity="0"/><use xlink:href="#I" transform="matrix(1,0,0,1,1468.2264109994956,541.9166416666683) translate(24.12109375 28.541666666666664)"/><path d="M1671.12 379.92a6 6 0 0 1 6-6h58a6 6 0 0 1 6 6v48a6 6 0 0 1-6 6h-58a6 6 0 0 1-6-6z" stroke="#000" stroke-opacity="0" fill="#fff" fill-opacity="0"/><use xlink:href="#M" transform="matrix(1,0,0,1,1676.116066171909,378.9166416666683) translate(24.104817708333336 28.541666666666664)"/><path d="M1723.23 432.25a6 6 0 0 1 6-6h58a6 6 0 0 1 6 6v48a6 6 0 0 1-6 6h-58a6 6 0 0 1-6-6z" stroke="#000" stroke-opacity="0" fill="#fff" fill-opacity="0"/><use xlink:href="#J" transform="matrix(1,0,0,1,1728.2264109994956,431.24997500000177) translate(24.104817708333336 28.541666666666664)"/><path d="M1683.23 526.25a6 6 0 0 1 6-6h58a6 6 0 0 1 6 6v48a6 6 0 0 1-6 6h-58a6 6 0 0 1-6-6z" stroke="#000" stroke-opacity="0" fill="#fff" fill-opacity="0"/><use xlink:href="#J" transform="matrix(1,0,0,1,1688.2264109994956,525.2499750000015) translate(24.104817708333336 28.541666666666664)"/><path d="M1601.3 491.14a6 6 0 0 1 6-6h58a6 6 0 0 1 6 6v48a6 6 0 0 1-6 6h-58a6 6 0 0 1-6-6z" stroke="#000" stroke-opacity="0" fill="#fff" fill-opacity="0"/><use xlink:href="#J" transform="matrix(1,0,0,1,1606.3108937581158,490.13997500000164) translate(24.104817708333336 28.541666666666664)"/><path d="M1611.12 408.92a6 6 0 0 1 6-6h58a6 6 0 0 1 6 6v48a6 6 0 0 1-6 6h-58a6 6 0 0 1-6-6z" stroke="#000" stroke-opacity="0" fill="#fff" fill-opacity="0"/><use xlink:href="#J" transform="matrix(1,0,0,1,1616.116066171909,407.9166416666683) translate(24.104817708333336 28.541666666666664)"/><path d="M376.5 526.92v124.5" stroke="#3a414a" stroke-width="5" stroke-linecap="round" fill="none"/><path d="M190.1 537.92a6 6 0 0 1 6-6h23.8a6 6 0 0 1 6 6v53a6 6 0 0 1-6 6h-23.8a6 6 0 0 1-6-6z" stroke="#000" stroke-opacity="0" fill="#fff" fill-opacity="0"/><use xlink:href="#F" transform="matrix(1,0,0,1,195.1069223338376,536.9166416666683) translate(3.234375 35.27777777777778)"/><path d="M767.17 61.92a6 6 0 0 1 6-6h13a6 6 0 0 0 6-6v-13a6 6 0 0 1 6-6h38a6 6 0 0 1 6 6v13a6 6 0 0 0 6 6h13a6 6 0 0 1 6 6v38a6 6 0 0 1-6 6h-13a6 6 0 0 0-6 6v13a6 6 0 0 1-6 6h-38a6 6 0 0 1-6-6v-13a6 6 0 0 0-6-6h-13a6 6 0 0 1-6-6z" stroke="#1071e5" stroke-width="2" fill="#edf5ff"/><use xlink:href="#N" transform="matrix(1,0,0,1,772.1712385857026,35.91654166667496) translate(21.250000000000007 56.94444444444443)"/><path d="M685.06 249.42h206.06M958.8 994.08h295" stroke="#3a414a" stroke-width="5" stroke-linecap="round" fill="none"/><path d="M682.56 260.25a6 6 0 0 1 6-6h139.06a6 6 0 0 1 6 6v48a6 6 0 0 1-6 6H688.56a6 6 0 0 1-6-6z" stroke="#000" stroke-opacity="0" fill="#fff" fill-opacity="0"/><use xlink:href="#O" transform="matrix(1,0,0,1,687.560893758116,259.24971973739434) translate(15.401041666666664 34.02777777777778)"/><path d="M1653.23 786.42a6 6 0 0 1 6-6h228a6 6 0 0 1 6 6v48a6 6 0 0 1-6 6h-228a6 6 0 0 1-6-6z" stroke="#000" stroke-opacity="0" fill="#fff" fill-opacity="0"/><use xlink:href="#P" transform="matrix(1,0,0,1,1658.2264109994956,785.4166916666646) translate(59.91644965277778 34.02777777777778)"/><path d="M1117.8 1002.58a6 6 0 0 1 6-6h162.68a6 6 0 0 1 6 6v48a6 6 0 0 1-6 6H1123.8a6 6 0 0 1-6-6z" stroke="#000" stroke-opacity="0" fill="#fff" fill-opacity="0"/><use xlink:href="#Q" transform="matrix(1,0,0,1,1122.8085949075426,1001.583308333335) translate(27.356770833333336 34.02777777777778)"/><path d="M289.64 477.92a6 6 0 0 1 6-6h228a6 6 0 0 1 6 6v48a6 6 0 0 1-6 6h-228a6 6 0 0 1-6-6z" stroke="#000" stroke-opacity="0" fill="#fff" fill-opacity="0"/><use xlink:href="#R" transform="matrix(1,0,0,1,294.63641099949564,476.9166416666683) translate(62.75390625 34.02777777777778)"/><path d="M813.42-13.08a6 6 0 0 1 6-6h58a6 6 0 0 1 6 6v48a6 6 0 0 1-6 6h-58a6 6 0 0 1-6-6z" stroke="#000" stroke-opacity="0" fill="#fff" fill-opacity="0"/><use xlink:href="#S" transform="matrix(1,0,0,1,818.4212385857023,-14.083458333324927) translate(19.62131076388889 34.02777777777778)"/><path d="M802.45 136.92a6 6 0 0 1 6-6h58a6 6 0 0 1 6 6v48a6 6 0 0 1-6 6h-58a6 6 0 0 1-6-6z" stroke="#000" stroke-opacity="0" fill="#fff" fill-opacity="0"/><use xlink:href="#S" transform="matrix(1,0,0,1,807.4471006546689,135.91654166667496) translate(19.62131076388889 34.02777777777778)"/><path d="M971.12 297.92a6 6 0 0 1 6-6h228a6 6 0 0 1 6 6v48a6 6 0 0 1-6 6h-228a6 6 0 0 1-6-6z" stroke="#000" stroke-opacity="0" fill="#fff" fill-opacity="0"/><use xlink:href="#T" transform="matrix(1,0,0,1,976.1160661719091,296.9166416666683) translate(59.856770833333336 34.02777777777778)"/><path d="M1621.12 335.58a6 6 0 0 1 6-6h97.22a6 6 0 0 1 6 6v20.34a6 6 0 0 1-6 6h-97.22a6 6 0 0 1-6-6z" stroke="#000" stroke-opacity="0" fill="#fff" fill-opacity="0"/><use xlink:href="#U" transform="matrix(1,0,0,1,1626.116066171909,334.5833083333348) translate(11.244032118055564 16.506944444444443)"/><path d="M1374.4 247.92a6 6 0 0 1 6-6h97.22a6 6 0 0 1 6 6v20.33a6 6 0 0 1-6 6h-97.22a6 6 0 0 1-6-6z" stroke="#000" stroke-opacity="0" fill="#fff" fill-opacity="0"/><use xlink:href="#V" transform="matrix(1,0,0,1,1379.395376516736,246.91664166666828) translate(11.331380208333343 16.506944444444443)"/><path d="M1265.17 457.92a6 6 0 0 1 6-6h97.22a6 6 0 0 1 6 6v20.33a6 6 0 0 1-6 6h-97.23a6 6 0 0 1-6-6z" stroke="#000" stroke-opacity="0" fill="#fff" fill-opacity="0"/><use xlink:href="#W" transform="matrix(1,0,0,1,1270.1746868615626,456.9166416666683) translate(9.941406250000007 16.506944444444443)"/><path d="M1518.95 537.92a6 6 0 0 1 6-6h97.22a6 6 0 0 1 6 6v20.33a6 6 0 0 1-6 6h-97.22a6 6 0 0 1-6-6z" stroke="#000" stroke-opacity="0" fill="#fff" fill-opacity="0"/><use xlink:href="#X" transform="matrix(1,0,0,1,1523.9490167481179,536.9166416666683) translate(9.854058159722229 16.506944444444443)"/><path d="M1353.62 376.58a6 6 0 0 1 6-6h97.22a6 6 0 0 1 6 6v20.34a6 6 0 0 1-6 6h-97.22a6 6 0 0 1-6-6z" stroke="#000" stroke-opacity="0" fill="#fff" fill-opacity="0"/><use xlink:href="#Y" transform="matrix(1,0,0,1,1358.616066171909,375.5833083333348) translate(10.005967881944457 16.506944444444443)"/><path d="M633.46 562.75a6 6 0 0 1 6-6h97.22a6 6 0 0 1 6 6v20.33a6 6 0 0 1-6 6h-97.22a6 6 0 0 1-6-6z" stroke="#000" stroke-opacity="0" fill="#fff" fill-opacity="0"/><use xlink:href="#Z" transform="matrix(1,0,0,1,638.4612633903109,561.7499750000015) translate(11.289605034722229 16.506944444444443)"/><path d="M861.9 646.58a6 6 0 0 1 6-6h97.22a6 6 0 0 1 6 6v20.34a6 6 0 0 1-6 6H867.9a6 6 0 0 1-6-6z" stroke="#000" stroke-opacity="0" fill="#fff" fill-opacity="0"/><use xlink:href="#aa" transform="matrix(1,0,0,1,866.8953765167357,645.583308333335) translate(11.20225694444445 16.506944444444443)"/><path d="M777.56 820.58a6 6 0 0 1 6-6h97.22a6 6 0 0 1 6 6v20.34a6 6 0 0 1-6 6h-97.22a6 6 0 0 1-6-6z" stroke="#000" stroke-opacity="0" fill="#fff" fill-opacity="0"/><use xlink:href="#ab" transform="matrix(1,0,0,1,782.5608937581159,819.583308333335) translate(9.812282986111121 16.506944444444443)"/><path d="M544.4 741.42a6 6 0 0 1 6-6h97.22a6 6 0 0 1 6 6v20.33a6 6 0 0 1-6 6H550.4a6 6 0 0 1-6-6z" stroke="#000" stroke-opacity="0" fill="#fff" fill-opacity="0"/><use xlink:href="#ac" transform="matrix(1,0,0,1,549.3953765167357,740.416641666668) translate(9.8996310763889 16.506944444444443)"/><path d="M653.23 659.92a6 6 0 0 1 6-6h97.22a6 6 0 0 1 6 6v20.33a6 6 0 0 1-6 6h-97.22a6 6 0 0 1-6-6z" stroke="#000" stroke-opacity="0" fill="#fff" fill-opacity="0"/><use xlink:href="#ad" transform="matrix(1,0,0,1,658.2264109994956,658.9166916666652) translate(9.964192708333343 16.506944444444443)"/><path d="M763.23 645.58a6 6 0 0 1 6-6h97.22a6 6 0 0 1 6 6v20.34a6 6 0 0 1-6 6h-97.22a6 6 0 0 1-6-6z" stroke="#000" stroke-opacity="0" fill="#fff" fill-opacity="0"/><use xlink:href="#ae" transform="matrix(1,0,0,1,768.2264109994956,644.5833083333348) translate(11.137695312500007 16.506944444444443)"/><path d="M1518.95 333.75a6 6 0 0 1 6-6h97.22a6 6 0 0 1 6 6v20.33a6 6 0 0 1-6 6h-97.22a6 6 0 0 1-6-6z" stroke="#000" stroke-opacity="0" fill="#fff" fill-opacity="0"/><use xlink:href="#af" transform="matrix(1,0,0,1,1523.9490167481179,332.74997500000154) translate(11.179470486111121 16.506944444444443)"/><path d="M1438.95 56.75h205" stroke="#3a414a" stroke-width="5" stroke-linecap="round" fill="none"/><path d="M1235.12-147.83h267.85a6 6 0 0 1 6 6V51.42" stroke="#3a414a" fill="none"/><path d="M1235.13-147.36h-.5v-.95h.5zM1509.45 51.92h-.95v-.52h.95z" stroke="#3a414a" stroke-width=".05" fill="#3a414a"/><path d="M191.6 577.92h181.9" stroke="#3a414a" fill="none"/><path d="M191.62 578.4h-.5v-.96h.5zM374 578.4h-.5v-.96h.5z" stroke="#3a414a" stroke-width=".05" fill="#3a414a"/><path d="M1368.8 468.92a6 6 0 0 1 6-6h58a6 6 0 0 1 6 6v48a6 6 0 0 1-6 6h-58a6 6 0 0 1-6-6z" stroke="#000" stroke-opacity="0" fill="#fff" fill-opacity="0"/><use xlink:href="#I" transform="matrix(1,0,0,1,1373.8108937581158,467.9166416666683) translate(24.12109375 28.541666666666664)"/><path d="M1297.6 1006.5a6 6 0 0 1 6-6h371.52a6 6 0 0 1 6 6v84.8a6 6 0 0 1-6 6H1303.6a6 6 0 0 1-6-6z" stroke="#000" stroke-opacity="0" fill="#fff" fill-opacity="0"/><use xlink:href="#ag" transform="matrix(1,0,0,1,1302.5892460562186,1005.5000499999968) translate(0 59.934027777777764)"/><use xlink:href="#ah" transform="matrix(1,0,0,1,1302.5892460562186,1005.5000499999968) translate(80.71289062499999 59.934027777777764)"/><path d="M1299.7 803.42a6 6 0 0 1 6-6h329.42a6 6 0 0 1 6 6V994.5a6 6 0 0 1-6 6H1305.7a6 6 0 0 1-6-6z" stroke="#3a414a" fill="#dfe3e8"/><path d="M1350.06 961.5h109.42" stroke="#3a414a" stroke-width="5" stroke-linecap="round" fill="none"/><path d="M1322.18 871.92a6 6 0 0 1 6-6h13a6 6 0 0 0 6-6v-13a6 6 0 0 1 6-6h38a6 6 0 0 1 6 6v13a6 6 0 0 0 6 6h13a6 6 0 0 1 6 6v38a6 6 0 0 1-6 6h-13a6 6 0 0 0-6 6v13a6 6 0 0 1-6 6h-38a6 6 0 0 1-6-6v-13a6 6 0 0 0-6-6h-13a6 6 0 0 1-6-6z" stroke="#1071e5" stroke-width="2" fill="#edf5ff"/><use xlink:href="#ai" transform="matrix(1,0,0,1,1327.1830528594282,845.9185877774653) translate(29.38368055555556 56.94444444444443)"/><path d="M1372.18 942.42v16.08" stroke="#3a414a" fill="none"/><path d="M1372.66 942.43h-.95v-.5h.96z" stroke="#3a414a" stroke-width=".05" fill="#3a414a"/><path d="M1372.18 958.5v3.5" stroke="#3a414a" fill="none"/><path d="M1393.23 932.75a6 6 0 0 1 6-6h127.1a6 6 0 0 1 6 6v34.94a6 6 0 0 1-6 6h-127.1a6 6 0 0 1-6-6z" stroke="#000" stroke-opacity="0" fill="#fff" fill-opacity="0"/><use xlink:href="#aj" transform="matrix(1,0,0,1,1398.2264109994956,931.7500249999979) translate(2.6247829861111143 26.15277777777778)"/><path d="M1320.68 890.92h-149.1a6 6 0 0 0-5.98 6v94.16" stroke="#3a414a" fill="none"/><path d="M1321.18 891.4h-.5v-.96h.5z" stroke="#3a414a" stroke-width=".05" fill="#3a414a"/><path d="M1165.6 991.07v3.5M1634.2 842.92v42a6 6 0 0 1-6 6h-204.52M1634.2 842.93v-3.5" stroke="#3a414a" fill="none"/><path d="M1423.7 891.4h-.52v-.96h.52z" stroke="#3a414a" stroke-width=".05" fill="#3a414a"/><path d="M1413.62 846.42a6 6 0 0 1 6-6h45.7a6 6 0 0 1 6 6v45.87a6 6 0 0 1-6 6h-45.7a6 6 0 0 1-6-6z" stroke="#000" stroke-opacity="0" fill="#fff" fill-opacity="0"/><g><use xlink:href="#ak" transform="matrix(1,0,0,1,1418.6160661719093,845.4166916666646) translate(14.022786458333334 33.52777777777778)"/></g><path d="M1240 837.92a6 6 0 0 1 6-6h45.7a6 6 0 0 1 6 6v45.87a6 6 0 0 1-6 6H1246a6 6 0 0 1-6-6z" stroke="#000" stroke-opacity="0" fill="#fff" fill-opacity="0"/><g><use xlink:href="#ak" transform="matrix(1,0,0,1,1245,836.9166416666683) translate(14.022786458333334 33.52777777777778)"/></g><path d="M1603.23 839.92h250.16" stroke="#3a414a" stroke-width="5" stroke-linecap="round" fill="none"/><defs><path fill="#008573" d="M-44 0l756-1490h400L1387 0h-327l-57-346H473L305 0H-44zm634-585h373c-37-212-56-397-81-666-107 262-185 453-292 666" id="al"/><path fill="#008573" d="M356 0L203-1490h333c23 394 67 756 57 1184 134-424 306-789 465-1184h317c27 393 77 753 72 1180 130-422 295-785 449-1180h334L1582 0h-348c-28-375-87-708-80-1118C1030-715 856-374 705 0H356" id="am"/><path fill="#008573" d="M605 22C247 22 24-145 68-462h297c-14 151 94 226 259 226 162 0 283-76 302-190 17-102-68-149-225-189l-158-41c-235-59-372-183-336-404 43-269 290-450 614-450 328 0 536 182 498 445h-294c8-119-76-188-229-188-156 0-256 72-273 172-30 154 195 185 336 221 239 61 415 185 374 436-45 271-266 446-628 446" id="an"/><g id="a"><use transform="matrix(0.020616319444444437,0,0,0.020616319444444437,0,0)" xlink:href="#al"/><use transform="matrix(0.020616319444444437,0,0,0.020616319444444437,28.49175347222221,0)" xlink:href="#am"/><use transform="matrix(0.020616319444444437,0,0,0.020616319444444437,72.05403645833331,0)" xlink:href="#an"/></g><path fill="#008573" d="M53-265l39-241 787-984h383l-162 979h186l-41 246h-186L1015 0H722l44-265H53zm759-246l107-643h-12L403-523l-2 12h411" id="ao"/><path fill="#008573" d="M262 19C158 19 86-65 104-172c15-88 94-152 182-152 106 0 175 85 158 189-14 88-92 154-182 154" id="ap"/><path fill="#008573" d="M595 20C218 20 45-261 124-744c80-483 349-766 724-766 374 0 549 282 470 765-80 485-346 765-723 765zm41-253c185 0 317-186 371-512 53-325-16-513-201-513-181 0-316 183-371 514-53 326 17 511 201 511" id="aq"/><path fill="#008573" d="M934-1560L160 224h-260l774-1784h260" id="ar"/><path fill="#008573" d="M587 20C253 20 27-158 67-401c31-187 195-339 381-369l1-9c-152-33-238-168-211-330 38-232 270-401 568-401s507 170 469 400c-27 164-161 298-321 331l-1 9c172 30 291 183 259 371-41 242-293 419-625 419zm16-226c151 0 274-88 295-219 21-130-67-225-214-225-145 0-273 91-296 224-22 129 60 220 215 220zm111-668c128 0 238-85 257-204 20-119-55-199-183-199s-236 78-257 199c-20 120 55 204 183 204" id="as"/><g id="b"><use transform="matrix(0.020616319444444437,0,0,0.020616319444444437,0,0)" xlink:href="#ao"/><use transform="matrix(0.020616319444444437,0,0,0.020616319444444437,27.151692708333325,0)" xlink:href="#ap"/><use transform="matrix(0.020616319444444437,0,0,0.020616319444444437,40.01627604166665,0)" xlink:href="#aq"/><use transform="matrix(0.020616319444444437,0,0,0.020616319444444437,67.22981770833331,0)" xlink:href="#ap"/><use transform="matrix(0.020616319444444437,0,0,0.020616319444444437,80.09440104166664,0)" xlink:href="#aq"/><use transform="matrix(0.020616319444444437,0,0,0.020616319444444437,107.3079427083333,0)" xlink:href="#ap"/><use transform="matrix(0.020616319444444437,0,0,0.020616319444444437,120.1725260416666,0)" xlink:href="#aq"/><use transform="matrix(0.020616319444444437,0,0,0.020616319444444437,148.62304687499994,0)" xlink:href="#ar"/><use transform="matrix(0.020616319444444437,0,0,0.020616319444444437,165.01302083333326,0)" xlink:href="#as"/></g><path fill="#3a414a" d="M52 0l541-1490h220L1361 0h-200l-149-416H398L254 0H52zm404-582h497c-103-290-145-390-251-756-108 377-145 460-246 756" id="at"/><path fill="#3a414a" d="M635 20c-292 0-500-160-510-396h192c11 142 145 229 315 229 187 0 323-105 323-260 0-161-125-274-346-274H488v-165h121c174 0 294-100 294-254 0-148-104-245-266-245-152 0-291 85-297 230H157c8-234 222-395 484-395 278 0 448 188 448 400 0 168-95 291-247 336v12c190 31 301 169 301 357 0 244-216 425-508 425" id="au"/><g id="c"><use transform="matrix(0.017361111111111105,0,0,0.017361111111111105,0,0)" xlink:href="#at"/><use transform="matrix(0.017361111111111105,0,0,0.017361111111111105,24.531249999999993,0)" xlink:href="#au"/></g><path fill="#3a414a" d="M783 20c-382 0-661-292-661-764 0-473 279-766 661-766 302 0 548 182 601 489h-190c-42-204-217-313-411-313-268 0-476 208-476 590 0 381 209 588 476 588 195 0 369-110 411-313h190c-52 303-296 489-601 489" id="av"/><g id="d"><use transform="matrix(0.017361111111111105,0,0,0.017361111111111105,0,0)" xlink:href="#av"/><use transform="matrix(0.017361111111111105,0,0,0.017361111111111105,25.972222222222214,0)" xlink:href="#au"/></g><path fill="#3a414a" d="M120-303v-155l652-1032h231v1020h202v167h-202V0H821v-303H120zm702-167v-782h-12L323-482v12h499" id="aw"/><path fill="#3a414a" d="M295 13c-75 0-135-60-135-135s60-135 135-135 135 60 135 135S370 13 295 13" id="ax"/><path fill="#3a414a" d="M653-1490V0H466v-1314h-10L96-1047v-204l324-239h233" id="ay"/><path fill="#3a414a" d="M646 20c-332 0-524-278-524-764 0-483 194-766 524-766s524 283 524 766c0 485-191 764-524 764zm0-166c218 0 341-220 341-598 0-380-123-601-341-601s-341 222-341 601c0 378 123 598 341 598" id="az"/><path fill="#3a414a" d="M692-1560L212 224H46l480-1784h166" id="aA"/><path fill="#3a414a" d="M646 20c-249 0-524-159-524-708 0-524 209-822 547-822 250 0 431 161 467 395H950c-33-129-126-227-281-227-229 0-367 208-367 566h12c80-124 212-198 367-198 255 0 467 205 467 493 0 278-198 501-502 501zm0-167c179 0 318-148 318-334 0-182-133-328-313-328-181 0-322 156-322 330 0 176 134 332 317 332" id="aB"/><g id="e"><use transform="matrix(0.010850694444444444,0,0,0.010850694444444444,0,0)" xlink:href="#aw"/><use transform="matrix(0.010850694444444444,0,0,0.010850694444444444,13.606770833333332,0)" xlink:href="#ax"/><use transform="matrix(0.010850694444444444,0,0,0.010850694444444444,18.08810763888889,0)" xlink:href="#ay"/><use transform="matrix(0.010850694444444444,0,0,0.010850694444444444,27.12673611111111,0)" xlink:href="#ax"/><use transform="matrix(0.010850694444444444,0,0,0.010850694444444444,32.96440972222222,0)" xlink:href="#az"/><use transform="matrix(0.010850694444444444,0,0,0.010850694444444444,46.41927083333333,0)" xlink:href="#ax"/><use transform="matrix(0.010850694444444444,0,0,0.010850694444444444,52.256944444444436,0)" xlink:href="#az"/><use transform="matrix(0.010850694444444444,0,0,0.010850694444444444,66.27604166666666,0)" xlink:href="#aA"/><use transform="matrix(0.010850694444444444,0,0,0.010850694444444444,74.28385416666666,0)" xlink:href="#ay"/><use transform="matrix(0.010850694444444444,0,0,0.010850694444444444,83.32248263888889,0)" xlink:href="#aB"/></g><g id="f"><use transform="matrix(0.010850694444444444,0,0,0.010850694444444444,0,0)" xlink:href="#ay"/><use transform="matrix(0.010850694444444444,0,0,0.010850694444444444,9.038628472222221,0)" xlink:href="#ax"/><use transform="matrix(0.010850694444444444,0,0,0.010850694444444444,13.51996527777778,0)" xlink:href="#ay"/><use transform="matrix(0.010850694444444444,0,0,0.010850694444444444,22.55859375,0)" xlink:href="#ax"/><use transform="matrix(0.010850694444444444,0,0,0.010850694444444444,28.39626736111111,0)" xlink:href="#az"/><use transform="matrix(0.010850694444444444,0,0,0.010850694444444444,41.85112847222222,0)" xlink:href="#ax"/><use transform="matrix(0.010850694444444444,0,0,0.010850694444444444,47.68880208333333,0)" xlink:href="#az"/><use transform="matrix(0.010850694444444444,0,0,0.010850694444444444,61.70789930555555,0)" xlink:href="#aA"/><use transform="matrix(0.010850694444444444,0,0,0.010850694444444444,69.71571180555554,0)" xlink:href="#ay"/><use transform="matrix(0.010850694444444444,0,0,0.010850694444444444,78.75434027777777,0)" xlink:href="#aB"/></g><path fill="#3a414a" d="M659 20C335 20 103-159 99-418h307c5 112 113 185 254 185 147 0 250-83 250-204 0-123-105-209-278-209H494v-227h138c145 0 246-81 246-200 0-115-87-193-216-193-130 0-237 73-240 189H128c4-255 233-433 536-433 306 0 510 185 510 418 0 167-114 285-279 317v11c217 29 333 162 333 347 0 254-237 437-569 437" id="aC"/><path fill="#3a414a" d="M342 19c-98 0-173-75-173-172s75-172 173-172 173 75 173 172S440 19 342 19" id="aD"/><path fill="#3a414a" d="M101-265v-241l623-984h383v979h186v246h-186V0H814v-265H101zm719-246v-643h-12L409-523v12h411" id="aE"/><path fill="#3a414a" d="M690 20C314 20 94-261 94-744c0-482 221-766 596-766 376 0 597 284 597 766 0 483-219 764-597 764zm0-253c184 0 286-184 286-511 0-328-102-514-286-514-183 0-285 187-285 514s101 511 285 511" id="aF"/><path fill="#3a414a" d="M768-1560L288 224H28l480-1784h260" id="aG"/><path fill="#3a414a" d="M749-1490V0H444v-1221h-10L93-980v-279l329-231h327" id="aH"/><path fill="#3a414a" d="M684 20C381 20 94-164 94-710c0-501 235-800 601-800 293 0 496 188 526 433H921c-25-105-108-170-226-170-197 0-301 182-301 476h10c67-130 211-208 374-208 263 0 459 201 459 481 0 301-224 518-553 518zm-2-242c147 0 258-116 258-268 0-150-108-266-256-266-146 0-259 121-259 267 0 147 109 267 257 267" id="aI"/><g id="g"><use transform="matrix(0.010850694444444444,0,0,0.010850694444444444,0,0)" xlink:href="#aC"/><use transform="matrix(0.010850694444444444,0,0,0.010850694444444444,13.878038194444445,0)" xlink:href="#aD"/><use transform="matrix(0.010850694444444444,0,0,0.010850694444444444,21.299913194444443,0)" xlink:href="#aE"/><use transform="matrix(0.010850694444444444,0,0,0.010850694444444444,35.57942708333333,0)" xlink:href="#aD"/><use transform="matrix(0.010850694444444444,0,0,0.010850694444444444,42.350260416666664,0)" xlink:href="#aF"/><use transform="matrix(0.010850694444444444,0,0,0.010850694444444444,56.68402777777778,0)" xlink:href="#aD"/><use transform="matrix(0.010850694444444444,0,0,0.010850694444444444,63.45486111111112,0)" xlink:href="#aF"/><use transform="matrix(0.010850694444444444,0,0,0.010850694444444444,78.43967013888889,0)" xlink:href="#aG"/><use transform="matrix(0.010850694444444444,0,0,0.010850694444444444,87.06597222222221,0)" xlink:href="#aH"/><use transform="matrix(0.010850694444444444,0,0,0.010850694444444444,96.64713541666666,0)" xlink:href="#aI"/></g><path fill="#3a414a" d="M154 0v-137l495-537c165-179 249-281 249-418 0-156-121-253-280-253-170 0-278 110-278 278H158c0-264 200-443 465-443 266 0 455 183 455 416 0 161-73 288-336 568L416-179v12h687V0H154" id="aJ"/><g id="h"><use transform="matrix(0.010850694444444444,0,0,0.010850694444444444,0,0)" xlink:href="#ax"/><use transform="matrix(0.010850694444444444,0,0,0.010850694444444444,6.401909722222222,0)" xlink:href="#aJ"/><use transform="matrix(0.010850694444444444,0,0,0.010850694444444444,19.954427083333332,0)" xlink:href="#az"/><use transform="matrix(0.010850694444444444,0,0,0.010850694444444444,33.97352430555556,0)" xlink:href="#az"/></g><image width="10" height="10" id="aK" xlink:href="https://cdn-cashy-static-assets.lucidchart.com/app/spark/import/emoji/svg2/1f916.svg" preserveAspectRatio="none"/><pattern id="i" patternUnits="userSpaceOnUse" x="701.45" y="-179.79" width="43.56" height="43.56"><use xlink:href="#aK" transform="translate(0, 0) scale(4.355859374999999,4.355859374999999)"/></pattern><g id="k"><use transform="matrix(0.019531249999999993,0,0,0.019531249999999993,0,0)" xlink:href="#at"/><use transform="matrix(0.019531249999999993,0,0,0.019531249999999993,27.59765624999999,0)" xlink:href="#au"/></g><g id="l"><use transform="matrix(0.010850694444444444,0,0,0.010850694444444444,0,0)" xlink:href="#ax"/><use transform="matrix(0.010850694444444444,0,0,0.010850694444444444,4.481336805555555,0)" xlink:href="#ay"/><use transform="matrix(0.010850694444444444,0,0,0.010850694444444444,13.519965277777777,0)" xlink:href="#au"/></g><path fill="#3a414a" d="M98-1322v-168h1126v168H757V0H567v-1322H98" id="aL"/><g id="m"><use transform="matrix(0.017361111111111105,0,0,0.017361111111111105,0,0)" xlink:href="#aL"/><use transform="matrix(0.017361111111111105,0,0,0.017361111111111105,21.753472222222214,0)" xlink:href="#aB"/></g><path fill="#3a414a" d="M200 0l662-1311v-12H98v-167h963v177L400 0H200" id="aM"/><g id="n"><use transform="matrix(0.017361111111111105,0,0,0.017361111111111105,0,0)" xlink:href="#aL"/><use transform="matrix(0.017361111111111105,0,0,0.017361111111111105,20.138888888888882,0)" xlink:href="#aM"/></g><path fill="#3a414a" d="M633 20c-303 0-511-173-511-416 0-188 124-348 291-378v-8c-145-37-237-174-237-332 0-227 192-396 457-396 261 0 456 169 456 396 0 158-94 295-235 332v8c162 30 291 190 291 378 0 243-212 416-512 416zm0-165c197 0 322-103 322-261 0-165-138-283-322-283-188 0-324 118-324 283 0 158 123 261 324 261zm0-703c157 0 272-101 272-252 0-149-110-246-272-246-165 0-273 97-273 246 0 151 112 252 273 252" id="aN"/><g id="o"><use transform="matrix(0.017361111111111105,0,0,0.017361111111111105,0,0)" xlink:href="#aL"/><use transform="matrix(0.017361111111111105,0,0,0.017361111111111105,22.951388888888882,0)" xlink:href="#aN"/></g><path fill="#008573" d="M707 20c-356 0-594-221-594-608 0-485 317-922 814-922 343 0 581 191 570 529h-309c-1-161-104-258-267-258-326 0-501 341-501 649 0 224 118 339 304 339 179 0 331-97 388-259h309c-81 277-347 530-714 530" id="aO"/><path fill="#008573" d="M549 22C246 22 73-162 73-445c0-359 234-687 634-687 301 0 475 184 475 467 0 360-234 687-633 687zm10-236c223 0 322-274 322-459 0-134-61-223-185-223-223 0-322 271-322 458 0 133 61 224 185 224" id="aP"/><path fill="#008573" d="M35 0l186-1118h278l-23 203c87-158 215-220 340-220 150 0 232 87 258 250 89-176 240-250 390-250 212 0 348 148 307 391L1648 0h-301l118-707c21-127-40-177-131-177-124 0-216 90-235 206L986 0H696l119-715c18-110-37-169-130-169-113 0-217 83-240 218L335 0H35" id="aQ"/><path fill="#008573" d="M548 22C250 22 73-164 73-448c0-345 220-684 633-684 269 0 447 145 451 374l-285 48c-6-116-55-186-169-186-226 0-328 261-328 457 0 135 55 225 182 225 119 0 222-77 266-198l271 56C1013-122 815 22 548 22" id="aR"/><path fill="#008573" d="M441 19C184 19 19-186 81-558c63-382 303-574 550-574 189 0 259 113 285 202h10l31-188h299L1071 0H776l29-179h-14C733-87 623 19 441 19zm133-241c154 0 263-135 296-336 34-204-31-334-185-334-159 0-264 139-296 334-33 197 29 336 185 336" id="aS"/><path fill="#008573" d="M490 22C212 20 43-104 37-315l281-29c11 104 65 146 186 146 109 0 214-47 222-128 5-51-29-84-119-104l-186-40c-195-42-289-149-277-303 14-232 242-359 510-359 274 2 415 119 430 308l-267 27c-11-76-56-120-162-120-98 0-203 45-211 128-6 50 24 83 118 104l194 40c196 41 291 138 279 289-15 238-265 378-545 378" id="aT"/><path fill="#008573" d="M776-1118l-37 229H530l-93 562c-12 72 14 104 85 104 23 0 74-7 97-13l5 225C555 8 488 16 426 16 201 16 99-97 132-301l98-588H76l37-229h155l44-266h300l-44 266h208" id="aU"/><g id="p"><use transform="matrix(0.020616319444444437,0,0,0.020616319444444437,0,0)" xlink:href="#aO"/><use transform="matrix(0.020616319444444437,0,0,0.020616319444444437,31.23372395833332,0)" xlink:href="#aP"/><use transform="matrix(0.020616319444444437,0,0,0.020616319444444437,57.14843749999998,0)" xlink:href="#aQ"/><use transform="matrix(0.020616319444444437,0,0,0.020616319444444437,95.68033854166663,0)" xlink:href="#aR"/><use transform="matrix(0.020616319444444437,0,0,0.020616319444444437,120.50238715277773,0)" xlink:href="#aS"/><use transform="matrix(0.020616319444444437,0,0,0.020616319444444437,147.13867187499994,0)" xlink:href="#aT"/><use transform="matrix(0.020616319444444437,0,0,0.020616319444444437,170.7649739583333,0)" xlink:href="#aU"/></g><path fill="#008573" d="M903-1490L656 0H352l203-1221h-10L163-980l46-279 368-231h326" id="aV"/><g id="q"><use transform="matrix(0.020616319444444437,0,0,0.020616319444444437,0,0)" xlink:href="#aV"/><use transform="matrix(0.020616319444444437,0,0,0.020616319444444437,18.224826388888882,0)" xlink:href="#ap"/><use transform="matrix(0.020616319444444437,0,0,0.020616319444444437,31.089409722222207,0)" xlink:href="#aq"/><use transform="matrix(0.020616319444444437,0,0,0.020616319444444437,58.30295138888886,0)" xlink:href="#ap"/><use transform="matrix(0.020616319444444437,0,0,0.020616319444444437,71.16753472222219,0)" xlink:href="#aq"/><use transform="matrix(0.020616319444444437,0,0,0.020616319444444437,98.38107638888883,0)" xlink:href="#ap"/><use transform="matrix(0.020616319444444437,0,0,0.020616319444444437,111.24565972222216,0)" xlink:href="#aq"/><use transform="matrix(0.020616319444444437,0,0,0.020616319444444437,139.6961805555555,0)" xlink:href="#ar"/><use transform="matrix(0.020616319444444437,0,0,0.020616319444444437,156.0861545138888,0)" xlink:href="#as"/></g><path fill="#008573" d="M188-1237l42-253h1217l-42 253H950L745 0H439l205-1237H188" id="aW"/><path fill="#008573" d="M552 24C254 24 71-146 71-432c0-377 264-705 643-705 236 0 413 123 413 326 0 251-270 329-766 342-10 155 35 265 213 267 113 0 207-50 245-134l269 36C1015-105 814 24 552 24zM392-650c368-7 456-43 456-146 0-71-63-115-165-115-165 0-251 126-291 261" id="aX"/><path fill="#008573" d="M582-1490L335 0H35l247-1490h300" id="aY"/><path fill="#008573" d="M36 0l185-1118h300L336 0H36zm359-1264c-91 0-153-69-139-154 14-84 99-154 190-154 89 0 153 67 139 154-14 86-100 154-190 154" id="aZ"/><g id="r"><use transform="matrix(0.020616319444444437,0,0,0.020616319444444437,0,0)" xlink:href="#aW"/><use transform="matrix(0.020616319444444437,0,0,0.020616319444444437,24.90451388888888,0)" xlink:href="#aX"/><use transform="matrix(0.020616319444444437,0,0,0.020616319444444437,49.80902777777776,0)" xlink:href="#aY"/><use transform="matrix(0.020616319444444437,0,0,0.020616319444444437,61.25108506944442,0)" xlink:href="#aZ"/><use transform="matrix(0.020616319444444437,0,0,0.020616319444444437,72.71375868055553,0)" xlink:href="#aS"/></g><path fill="#008573" d="M36 0l185-1118h290l-31 195h12c83-166 210-238 399-200l-45 268c-197-55-375 37-405 219L336 0H36" id="ba"/><g id="s"><use transform="matrix(0.020616319444444437,0,0,0.020616319444444437,0,0)" xlink:href="#aO"/><use transform="matrix(0.020616319444444437,0,0,0.020616319444444437,31.23372395833332,0)" xlink:href="#aS"/><use transform="matrix(0.020616319444444437,0,0,0.020616319444444437,57.870008680555536,0)" xlink:href="#ba"/><use transform="matrix(0.020616319444444437,0,0,0.020616319444444437,75.3938802083333,0)" xlink:href="#ba"/><use transform="matrix(0.020616319444444437,0,0,0.020616319444444437,92.91775173611107,0)" xlink:href="#aZ"/><use transform="matrix(0.020616319444444437,0,0,0.020616319444444437,104.38042534722217,0)" xlink:href="#aX"/><use transform="matrix(0.020616319444444437,0,0,0.020616319444444437,129.28493923611106,0)" xlink:href="#ba"/></g><path fill="#008573" d="M572 20C248 20 37-159 76-418h307c-13 112 82 185 223 185 146 0 264-82 284-203 21-124-71-210-243-210H509l38-227h138c143 0 258-80 278-200 19-115-54-193-183-193-132 0-250 74-272 189H214c46-255 298-433 600-433 305 0 487 185 448 418-27 168-161 285-332 317l-1 11c213 29 306 163 275 347-42 255-302 437-632 437" id="bb"/><g id="t"><use transform="matrix(0.020616319444444437,0,0,0.020616319444444437,0,0)" xlink:href="#bb"/><use transform="matrix(0.020616319444444437,0,0,0.020616319444444437,26.368272569444436,0)" xlink:href="#ap"/><use transform="matrix(0.020616319444444437,0,0,0.020616319444444437,39.232855902777764,0)" xlink:href="#aq"/><use transform="matrix(0.020616319444444437,0,0,0.020616319444444437,66.44639756944443,0)" xlink:href="#ap"/><use transform="matrix(0.020616319444444437,0,0,0.020616319444444437,79.31098090277776,0)" xlink:href="#aq"/><use transform="matrix(0.020616319444444437,0,0,0.020616319444444437,106.5245225694444,0)" xlink:href="#ap"/><use transform="matrix(0.020616319444444437,0,0,0.020616319444444437,119.38910590277773,0)" xlink:href="#aq"/><use transform="matrix(0.020616319444444437,0,0,0.020616319444444437,147.83962673611106,0)" xlink:href="#ar"/><use transform="matrix(0.020616319444444437,0,0,0.020616319444444437,164.2296006944444,0)" xlink:href="#as"/></g><path fill="#3a414a" d="M130 0v-134l666-991c45-67 96-135 147-202-269 9-546 3-821 5v-168h1036v136L502-379c-49 72-103 145-157 216 268-9 546-3 821-5V0H130" id="bc"/><g id="u"><use transform="matrix(0.017361111111111105,0,0,0.017361111111111105,0,0)" xlink:href="#bc"/><use transform="matrix(0.017361111111111105,0,0,0.017361111111111105,22.361111111111104,0)" xlink:href="#aB"/></g><g id="v"><use transform="matrix(0.017361111111111105,0,0,0.017361111111111105,0,0)" xlink:href="#bc"/><use transform="matrix(0.017361111111111105,0,0,0.017361111111111105,22.361111111111104,0)" xlink:href="#aM"/></g><g id="w"><use transform="matrix(0.017361111111111105,0,0,0.017361111111111105,0,0)" xlink:href="#bc"/><use transform="matrix(0.017361111111111105,0,0,0.017361111111111105,22.361111111111104,0)" xlink:href="#aN"/></g><path fill="#008573" d="M23 0l30-183 923-1054H225l42-253h1134l-31 184L448-253h750L1156 0H23" id="bd"/><path fill="#008573" d="M-37 396L69 170c124 42 243 19 271-107l19-60-235-1121h310c39 287 107 555 115 872 123-306 281-582 422-872h323L612 132c-98 180-235 294-460 294-77 0-149-13-189-30" id="be"/><g id="x"><use transform="matrix(0.020616319444444437,0,0,0.020616319444444437,0,0)" xlink:href="#bd"/><use transform="matrix(0.020616319444444437,0,0,0.020616319444444437,28.079427083333325,0)" xlink:href="#aS"/><use transform="matrix(0.020616319444444437,0,0,0.020616319444444437,53.99414062499999,0)" xlink:href="#be"/><use transform="matrix(0.020616319444444437,0,0,0.020616319444444437,78.65125868055553,0)" xlink:href="#aP"/></g><path fill="#008573" d="M716 20c-372 0-603-230-603-607 0-487 323-923 817-923 330 0 576 197 568 500h-310c-18-142-108-229-266-229-321 0-502 333-502 645 0 223 116 343 310 343 217 0 373-125 412-311H819l38-232h620l-32 196c-65 390-362 618-729 618" id="bf"/><path fill="#008573" d="M419 14C188 14 60-144 103-407l118-711h300L412-459c-23 138 39 222 166 222 125 0 231-84 255-234l107-647h301L1056 0H772l35-232C717-74 589 14 419 14" id="bg"/><path fill="#008573" d="M-34 418l255-1536h295l-34 188h9c56-93 162-202 343-202 221 0 385 151 385 442 0 320-177 709-544 709-191 0-269-117-296-207h-14l-99 606H-34zm624-640c223 0 323-269 323-451 0-133-57-219-180-219-214 0-324 244-324 448 0 137 61 222 181 222" id="bh"/><g id="y"><use transform="matrix(0.020616319444444437,0,0,0.020616319444444437,0,0)" xlink:href="#bf"/><use transform="matrix(0.020616319444444437,0,0,0.020616319444444437,31.6872829861111,0)" xlink:href="#ba"/><use transform="matrix(0.020616319444444437,0,0,0.020616319444444437,47.871093749999986,0)" xlink:href="#aP"/><use transform="matrix(0.020616319444444437,0,0,0.020616319444444437,73.78580729166664,0)" xlink:href="#bg"/><use transform="matrix(0.020616319444444437,0,0,0.020616319444444437,100.09223090277774,0)" xlink:href="#bh"/></g><path fill="#008573" d="M31 0l37-220 609-495c159-133 252-221 271-342 22-133-58-209-189-209-139 0-255 88-279 233H189c48-290 275-477 585-477 316 0 511 183 468 441-28 168-124 307-472 585L507-262l-2 11h622L1086 0H31" id="bi"/><g id="z"><use transform="matrix(0.020616319444444437,0,0,0.020616319444444437,0,0)" xlink:href="#bi"/><use transform="matrix(0.020616319444444437,0,0,0.020616319444444437,26.595052083333325,0)" xlink:href="#ap"/><use transform="matrix(0.020616319444444437,0,0,0.020616319444444437,39.45963541666665,0)" xlink:href="#aq"/><use transform="matrix(0.020616319444444437,0,0,0.020616319444444437,66.67317708333331,0)" xlink:href="#ap"/><use transform="matrix(0.020616319444444437,0,0,0.020616319444444437,79.53776041666664,0)" xlink:href="#aq"/><use transform="matrix(0.020616319444444437,0,0,0.020616319444444437,106.75130208333327,0)" xlink:href="#ap"/><use transform="matrix(0.020616319444444437,0,0,0.020616319444444437,119.6158854166666,0)" xlink:href="#aq"/><use transform="matrix(0.020616319444444437,0,0,0.020616319444444437,148.06640624999994,0)" xlink:href="#ar"/><use transform="matrix(0.020616319444444437,0,0,0.020616319444444437,164.45638020833326,0)" xlink:href="#as"/></g><image width="10" height="10" id="bj" xlink:href="https://cdn-cashy-static-assets.lucidchart.com/app/spark/import/emoji/svg2/1f468-200d-1f4bb.svg" preserveAspectRatio="none"/><pattern id="A" patternUnits="userSpaceOnUse" x="-195.3" y="330.91" width="50.82" height="50.82"><use xlink:href="#bj" transform="translate(0, 0) scale(5.0818359374999975,5.0818359374999975)"/></pattern><g id="C"><use transform="matrix(0.022786458333333322,0,0,0.022786458333333322,0,0)" xlink:href="#av"/><use transform="matrix(0.022786458333333322,0,0,0.022786458333333322,34.08854166666665,0)" xlink:href="#ay"/></g><path fill="#3a414a" d="M626 20c-262 0-458-168-468-396h184c12 133 134 229 284 229 180 0 311-137 311-326 0-192-136-335-323-335-92 0-196 33-255 78l-178-22 88-738h784v167H429l-51 435h8c61-51 160-87 263-87 273 0 474 211 474 499 0 286-210 496-497 496" id="bk"/><g id="D"><use transform="matrix(0.017361111111111105,0,0,0.017361111111111105,0,0)" xlink:href="#aL"/><use transform="matrix(0.017361111111111105,0,0,0.017361111111111105,22.951388888888882,0)" xlink:href="#bk"/></g><g id="E"><use transform="matrix(0.017361111111111105,0,0,0.017361111111111105,0,0)" xlink:href="#bc"/><use transform="matrix(0.017361111111111105,0,0,0.017361111111111105,22.361111111111104,0)" xlink:href="#bk"/></g><g id="F"><use transform="matrix(0.010850694444444444,0,0,0.010850694444444444,0,0)" xlink:href="#ax"/><use transform="matrix(0.010850694444444444,0,0,0.010850694444444444,5.805121527777778,0)" xlink:href="#au"/></g><g id="G"><use transform="matrix(0.006510416666666664,0,0,0.006510416666666664,0,0)" xlink:href="#ax"/><use transform="matrix(0.006510416666666664,0,0,0.006510416666666664,3.5026041666666656,0)" xlink:href="#aB"/></g><g id="H"><use transform="matrix(0.006510416666666664,0,0,0.006510416666666664,0,0)" xlink:href="#ax"/><use transform="matrix(0.006510416666666664,0,0,0.006510416666666664,3.6523437499999996,0)" xlink:href="#aM"/></g><g id="I"><use transform="matrix(0.006510416666666664,0,0,0.006510416666666664,0,0)" xlink:href="#ax"/><use transform="matrix(0.006510416666666664,0,0,0.006510416666666664,3.6523437499999996,0)" xlink:href="#bk"/></g><g id="J"><use transform="matrix(0.006510416666666664,0,0,0.006510416666666664,0,0)" xlink:href="#ax"/><use transform="matrix(0.006510416666666664,0,0,0.006510416666666664,3.541666666666665,0)" xlink:href="#aN"/></g><path d="M295 13c-75 0-135-60-135-135s60-135 135-135 135 60 135 135S370 13 295 13" id="bl"/><path d="M200 0l662-1311v-12H98v-167h963v177L400 0H200" id="bm"/><g id="K"><use transform="matrix(0.006510416666666664,0,0,0.006510416666666664,0,0)" xlink:href="#bl"/><use transform="matrix(0.006510416666666664,0,0,0.006510416666666664,3.6523437499999996,0)" xlink:href="#bm"/></g><path d="M646 20c-249 0-524-159-524-708 0-524 209-822 547-822 250 0 431 161 467 395H950c-33-129-126-227-281-227-229 0-367 208-367 566h12c80-124 212-198 367-198 255 0 467 205 467 493 0 278-198 501-502 501zm0-167c179 0 318-148 318-334 0-182-133-328-313-328-181 0-322 156-322 330 0 176 134 332 317 332" id="bn"/><g id="L"><use transform="matrix(0.006510416666666664,0,0,0.006510416666666664,0,0)" xlink:href="#bl"/><use transform="matrix(0.006510416666666664,0,0,0.006510416666666664,3.5026041666666656,0)" xlink:href="#bn"/></g><path d="M633 20c-303 0-511-173-511-416 0-188 124-348 291-378v-8c-145-37-237-174-237-332 0-227 192-396 457-396 261 0 456 169 456 396 0 158-94 295-235 332v8c162 30 291 190 291 378 0 243-212 416-512 416zm0-165c197 0 322-103 322-261 0-165-138-283-322-283-188 0-324 118-324 283 0 158 123 261 324 261zm0-703c157 0 272-101 272-252 0-149-110-246-272-246-165 0-273 97-273 246 0 151 112 252 273 252" id="bo"/><g id="M"><use transform="matrix(0.006510416666666664,0,0,0.006510416666666664,0,0)" xlink:href="#bl"/><use transform="matrix(0.006510416666666664,0,0,0.006510416666666664,3.541666666666665,0)" xlink:href="#bo"/></g><g id="N"><use transform="matrix(0.017361111111111105,0,0,0.017361111111111105,0,0)" xlink:href="#at"/><use transform="matrix(0.017361111111111105,0,0,0.017361111111111105,24.531249999999993,0)" xlink:href="#aw"/></g><path fill="#3a414a" d="M124 0v-220l528-495c135-132 210-216 210-336 0-133-98-215-231-215-139 0-229 88-229 233H110c0-290 214-477 523-477 315 0 525 182 525 440 0 167-80 305-385 586L548-262v11h630V0H124" id="bp"/><g id="O"><use transform="matrix(0.010850694444444444,0,0,0.010850694444444444,0,0)" xlink:href="#bp"/><use transform="matrix(0.010850694444444444,0,0,0.010850694444444444,13.997395833333332,0)" xlink:href="#aD"/><use transform="matrix(0.010850694444444444,0,0,0.010850694444444444,21.419270833333332,0)" xlink:href="#aE"/><use transform="matrix(0.010850694444444444,0,0,0.010850694444444444,35.69878472222222,0)" xlink:href="#aD"/><use transform="matrix(0.010850694444444444,0,0,0.010850694444444444,42.46961805555556,0)" xlink:href="#aF"/><use transform="matrix(0.010850694444444444,0,0,0.010850694444444444,56.80338541666667,0)" xlink:href="#aD"/><use transform="matrix(0.010850694444444444,0,0,0.010850694444444444,63.57421875000001,0)" xlink:href="#aF"/><use transform="matrix(0.010850694444444444,0,0,0.010850694444444444,78.55902777777779,0)" xlink:href="#aG"/><use transform="matrix(0.010850694444444444,0,0,0.010850694444444444,87.18532986111111,0)" xlink:href="#aH"/><use transform="matrix(0.010850694444444444,0,0,0.010850694444444444,96.76649305555556,0)" xlink:href="#aI"/></g><path fill="#3a414a" d="M666 20C332 20 94-158 94-400c0-186 139-340 321-370v-9c-159-33-267-168-267-331 0-230 219-400 518-400 298 0 519 171 519 400 0 163-111 298-266 331v9c177 30 321 184 321 370 0 242-241 420-574 420zm0-226c153 0 255-89 255-218 0-131-108-226-255-226-148 0-255 94-255 226 0 128 101 218 255 218zm0-668c127 0 220-84 220-203s-90-200-220-200-220 80-220 200c0 119 92 203 220 203" id="bq"/><g id="P"><use transform="matrix(0.010850694444444444,0,0,0.010850694444444444,0,0)" xlink:href="#aC"/><use transform="matrix(0.010850694444444444,0,0,0.010850694444444444,13.878038194444445,0)" xlink:href="#aD"/><use transform="matrix(0.010850694444444444,0,0,0.010850694444444444,20.670572916666664,0)" xlink:href="#bq"/><use transform="matrix(0.010850694444444444,0,0,0.010850694444444444,34.66796875,0)" xlink:href="#aD"/><use transform="matrix(0.010850694444444444,0,0,0.010850694444444444,41.438802083333336,0)" xlink:href="#aF"/><use transform="matrix(0.010850694444444444,0,0,0.010850694444444444,55.77256944444445,0)" xlink:href="#aD"/><use transform="matrix(0.010850694444444444,0,0,0.010850694444444444,62.543402777777786,0)" xlink:href="#aF"/><use transform="matrix(0.010850694444444444,0,0,0.010850694444444444,77.52821180555556,0)" xlink:href="#aG"/><use transform="matrix(0.010850694444444444,0,0,0.010850694444444444,86.15451388888889,0)" xlink:href="#aH"/><use transform="matrix(0.010850694444444444,0,0,0.010850694444444444,95.73567708333333,0)" xlink:href="#aI"/></g><g id="Q"><use transform="matrix(0.010850694444444444,0,0,0.010850694444444444,0,0)" xlink:href="#bp"/><use transform="matrix(0.010850694444444444,0,0,0.010850694444444444,13.997395833333332,0)" xlink:href="#aD"/><use transform="matrix(0.010850694444444444,0,0,0.010850694444444444,20.789930555555554,0)" xlink:href="#bq"/><use transform="matrix(0.010850694444444444,0,0,0.010850694444444444,34.787326388888886,0)" xlink:href="#aD"/><use transform="matrix(0.010850694444444444,0,0,0.010850694444444444,41.55815972222222,0)" xlink:href="#aF"/><use transform="matrix(0.010850694444444444,0,0,0.010850694444444444,55.89192708333333,0)" xlink:href="#aD"/><use transform="matrix(0.010850694444444444,0,0,0.010850694444444444,62.66276041666667,0)" xlink:href="#aF"/><use transform="matrix(0.010850694444444444,0,0,0.010850694444444444,77.64756944444444,0)" xlink:href="#aG"/><use transform="matrix(0.010850694444444444,0,0,0.010850694444444444,86.27387152777777,0)" xlink:href="#aH"/><use transform="matrix(0.010850694444444444,0,0,0.010850694444444444,95.85503472222221,0)" xlink:href="#aI"/></g><g id="R"><use transform="matrix(0.010850694444444444,0,0,0.010850694444444444,0,0)" xlink:href="#bp"/><use transform="matrix(0.010850694444444444,0,0,0.010850694444444444,13.997395833333332,0)" xlink:href="#aD"/><use transform="matrix(0.010850694444444444,0,0,0.010850694444444444,19.41189236111111,0)" xlink:href="#aH"/><use transform="matrix(0.010850694444444444,0,0,0.010850694444444444,28.99305555555556,0)" xlink:href="#aD"/><use transform="matrix(0.010850694444444444,0,0,0.010850694444444444,35.763888888888886,0)" xlink:href="#aF"/><use transform="matrix(0.010850694444444444,0,0,0.010850694444444444,50.09765625,0)" xlink:href="#aD"/><use transform="matrix(0.010850694444444444,0,0,0.010850694444444444,56.86848958333333,0)" xlink:href="#aF"/><use transform="matrix(0.010850694444444444,0,0,0.010850694444444444,71.85329861111111,0)" xlink:href="#aG"/><use transform="matrix(0.010850694444444444,0,0,0.010850694444444444,80.47960069444444,0)" xlink:href="#aH"/><use transform="matrix(0.010850694444444444,0,0,0.010850694444444444,90.06076388888889,0)" xlink:href="#aI"/></g><g id="S"><use transform="matrix(0.010850694444444444,0,0,0.010850694444444444,0,0)" xlink:href="#ax"/><use transform="matrix(0.010850694444444444,0,0,0.010850694444444444,6.401909722222222,0)" xlink:href="#aw"/></g><g id="T"><use transform="matrix(0.010850694444444444,0,0,0.010850694444444444,0,0)" xlink:href="#bp"/><use transform="matrix(0.010850694444444444,0,0,0.010850694444444444,13.997395833333332,0)" xlink:href="#aD"/><use transform="matrix(0.010850694444444444,0,0,0.010850694444444444,20.909288194444443,0)" xlink:href="#aC"/><use transform="matrix(0.010850694444444444,0,0,0.010850694444444444,34.787326388888886,0)" xlink:href="#aD"/><use transform="matrix(0.010850694444444444,0,0,0.010850694444444444,41.55815972222222,0)" xlink:href="#aF"/><use transform="matrix(0.010850694444444444,0,0,0.010850694444444444,55.89192708333333,0)" xlink:href="#aD"/><use transform="matrix(0.010850694444444444,0,0,0.010850694444444444,62.66276041666667,0)" xlink:href="#aF"/><use transform="matrix(0.010850694444444444,0,0,0.010850694444444444,77.64756944444444,0)" xlink:href="#aG"/><use transform="matrix(0.010850694444444444,0,0,0.010850694444444444,86.27387152777777,0)" xlink:href="#aH"/><use transform="matrix(0.010850694444444444,0,0,0.010850694444444444,95.85503472222221,0)" xlink:href="#aI"/></g><path fill="#3a414a" d="M177 0l620-1228v-10H75v-252h1041v256L494 0H177" id="br"/><g id="U"><use transform="matrix(0.007595486111111109,0,0,0.007595486111111109,0,0)" xlink:href="#aC"/><use transform="matrix(0.007595486111111109,0,0,0.007595486111111109,9.714626736111107,0)" xlink:href="#aD"/><use transform="matrix(0.007595486111111109,0,0,0.007595486111111109,14.514973958333329,0)" xlink:href="#br"/><use transform="matrix(0.007595486111111109,0,0,0.007595486111111109,21.616753472222214,0)" xlink:href="#aD"/><use transform="matrix(0.007595486111111109,0,0,0.007595486111111109,26.37152777777777,0)" xlink:href="#bq"/><use transform="matrix(0.007595486111111109,0,0,0.007595486111111109,36.1697048611111,0)" xlink:href="#aD"/><use transform="matrix(0.007595486111111109,0,0,0.007595486111111109,40.909288194444436,0)" xlink:href="#aF"/><use transform="matrix(0.007595486111111109,0,0,0.007595486111111109,51.39865451388888,0)" xlink:href="#aG"/><use transform="matrix(0.007595486111111109,0,0,0.007595486111111109,57.437065972222214,0)" xlink:href="#bp"/><use transform="matrix(0.007595486111111109,0,0,0.007595486111111109,66.99218749999999,0)" xlink:href="#aE"/></g><g id="V"><use transform="matrix(0.007595486111111109,0,0,0.007595486111111109,0,0)" xlink:href="#aC"/><use transform="matrix(0.007595486111111109,0,0,0.007595486111111109,9.714626736111107,0)" xlink:href="#aD"/><use transform="matrix(0.007595486111111109,0,0,0.007595486111111109,14.45421006944444,0)" xlink:href="#aI"/><use transform="matrix(0.007595486111111109,0,0,0.007595486111111109,24.092881944444436,0)" xlink:href="#aD"/><use transform="matrix(0.007595486111111109,0,0,0.007595486111111109,28.893229166666657,0)" xlink:href="#br"/><use transform="matrix(0.007595486111111109,0,0,0.007595486111111109,35.99500868055554,0)" xlink:href="#aD"/><use transform="matrix(0.007595486111111109,0,0,0.007595486111111109,40.73459201388888,0)" xlink:href="#aF"/><use transform="matrix(0.007595486111111109,0,0,0.007595486111111109,51.22395833333332,0)" xlink:href="#aG"/><use transform="matrix(0.007595486111111109,0,0,0.007595486111111109,57.26236979166666,0)" xlink:href="#bp"/><use transform="matrix(0.007595486111111109,0,0,0.007595486111111109,66.81749131944443,0)" xlink:href="#aE"/></g><path fill="#3a414a" d="M664 20c-306 0-529-183-535-438h297c6 117 110 196 238 196 149 0 255-108 255-266 0-159-108-270-261-270-89 0-178 39-224 98l-274-48 72-782h901v252H485l-39 377h8c53-72 165-124 294-124 269 0 467 204 467 490 0 300-224 515-551 515" id="bs"/><g id="W"><use transform="matrix(0.007595486111111109,0,0,0.007595486111111109,0,0)" xlink:href="#aC"/><use transform="matrix(0.007595486111111109,0,0,0.007595486111111109,9.714626736111107,0)" xlink:href="#aD"/><use transform="matrix(0.007595486111111109,0,0,0.007595486111111109,14.81119791666666,0)" xlink:href="#bs"/><use transform="matrix(0.007595486111111109,0,0,0.007595486111111109,24.396701388888882,0)" xlink:href="#aD"/><use transform="matrix(0.007595486111111109,0,0,0.007595486111111109,29.136284722222214,0)" xlink:href="#aI"/><use transform="matrix(0.007595486111111109,0,0,0.007595486111111109,38.774956597222214,0)" xlink:href="#aD"/><use transform="matrix(0.007595486111111109,0,0,0.007595486111111109,43.51453993055555,0)" xlink:href="#aF"/><use transform="matrix(0.007595486111111109,0,0,0.007595486111111109,54.00390624999999,0)" xlink:href="#aG"/><use transform="matrix(0.007595486111111109,0,0,0.007595486111111109,60.04231770833333,0)" xlink:href="#bp"/><use transform="matrix(0.007595486111111109,0,0,0.007595486111111109,69.5974392361111,0)" xlink:href="#aE"/></g><g id="X"><use transform="matrix(0.007595486111111109,0,0,0.007595486111111109,0,0)" xlink:href="#aC"/><use transform="matrix(0.007595486111111109,0,0,0.007595486111111109,9.714626736111107,0)" xlink:href="#aD"/><use transform="matrix(0.007595486111111109,0,0,0.007595486111111109,14.81119791666666,0)" xlink:href="#bs"/><use transform="matrix(0.007595486111111109,0,0,0.007595486111111109,24.396701388888882,0)" xlink:href="#aD"/><use transform="matrix(0.007595486111111109,0,0,0.007595486111111109,29.15147569444444,0)" xlink:href="#bq"/><use transform="matrix(0.007595486111111109,0,0,0.007595486111111109,38.94965277777777,0)" xlink:href="#aD"/><use transform="matrix(0.007595486111111109,0,0,0.007595486111111109,43.68923611111111,0)" xlink:href="#aF"/><use transform="matrix(0.007595486111111109,0,0,0.007595486111111109,54.17860243055555,0)" xlink:href="#aG"/><use transform="matrix(0.007595486111111109,0,0,0.007595486111111109,60.217013888888886,0)" xlink:href="#bp"/><use transform="matrix(0.007595486111111109,0,0,0.007595486111111109,69.77213541666666,0)" xlink:href="#aE"/></g><g id="Y"><use transform="matrix(0.007595486111111109,0,0,0.007595486111111109,0,0)" xlink:href="#aC"/><use transform="matrix(0.007595486111111109,0,0,0.007595486111111109,9.714626736111107,0)" xlink:href="#aD"/><use transform="matrix(0.007595486111111109,0,0,0.007595486111111109,14.45421006944444,0)" xlink:href="#aI"/><use transform="matrix(0.007595486111111109,0,0,0.007595486111111109,24.092881944444436,0)" xlink:href="#aD"/><use transform="matrix(0.007595486111111109,0,0,0.007595486111111109,28.847656249999993,0)" xlink:href="#bq"/><use transform="matrix(0.007595486111111109,0,0,0.007595486111111109,38.64583333333332,0)" xlink:href="#aD"/><use transform="matrix(0.007595486111111109,0,0,0.007595486111111109,43.38541666666666,0)" xlink:href="#aF"/><use transform="matrix(0.007595486111111109,0,0,0.007595486111111109,53.8747829861111,0)" xlink:href="#aG"/><use transform="matrix(0.007595486111111109,0,0,0.007595486111111109,59.91319444444443,0)" xlink:href="#bp"/><use transform="matrix(0.007595486111111109,0,0,0.007595486111111109,69.4683159722222,0)" xlink:href="#aE"/></g><g id="Z"><use transform="matrix(0.007595486111111109,0,0,0.007595486111111109,0,0)" xlink:href="#bp"/><use transform="matrix(0.007595486111111109,0,0,0.007595486111111109,9.79817708333333,0)" xlink:href="#aD"/><use transform="matrix(0.007595486111111109,0,0,0.007595486111111109,14.537760416666664,0)" xlink:href="#aI"/><use transform="matrix(0.007595486111111109,0,0,0.007595486111111109,24.17643229166666,0)" xlink:href="#aD"/><use transform="matrix(0.007595486111111109,0,0,0.007595486111111109,28.976779513888882,0)" xlink:href="#br"/><use transform="matrix(0.007595486111111109,0,0,0.007595486111111109,36.07855902777777,0)" xlink:href="#aD"/><use transform="matrix(0.007595486111111109,0,0,0.007595486111111109,40.81814236111111,0)" xlink:href="#aF"/><use transform="matrix(0.007595486111111109,0,0,0.007595486111111109,51.30750868055555,0)" xlink:href="#aG"/><use transform="matrix(0.007595486111111109,0,0,0.007595486111111109,57.345920138888886,0)" xlink:href="#bp"/><use transform="matrix(0.007595486111111109,0,0,0.007595486111111109,66.90104166666666,0)" xlink:href="#aE"/></g><g id="aa"><use transform="matrix(0.007595486111111109,0,0,0.007595486111111109,0,0)" xlink:href="#bp"/><use transform="matrix(0.007595486111111109,0,0,0.007595486111111109,9.79817708333333,0)" xlink:href="#aD"/><use transform="matrix(0.007595486111111109,0,0,0.007595486111111109,14.598524305555554,0)" xlink:href="#br"/><use transform="matrix(0.007595486111111109,0,0,0.007595486111111109,21.70030381944444,0)" xlink:href="#aD"/><use transform="matrix(0.007595486111111109,0,0,0.007595486111111109,26.455078124999996,0)" xlink:href="#bq"/><use transform="matrix(0.007595486111111109,0,0,0.007595486111111109,36.25325520833333,0)" xlink:href="#aD"/><use transform="matrix(0.007595486111111109,0,0,0.007595486111111109,40.992838541666664,0)" xlink:href="#aF"/><use transform="matrix(0.007595486111111109,0,0,0.007595486111111109,51.48220486111111,0)" xlink:href="#aG"/><use transform="matrix(0.007595486111111109,0,0,0.007595486111111109,57.52061631944444,0)" xlink:href="#bp"/><use transform="matrix(0.007595486111111109,0,0,0.007595486111111109,67.07573784722221,0)" xlink:href="#aE"/></g><g id="ab"><use transform="matrix(0.007595486111111109,0,0,0.007595486111111109,0,0)" xlink:href="#bp"/><use transform="matrix(0.007595486111111109,0,0,0.007595486111111109,9.79817708333333,0)" xlink:href="#aD"/><use transform="matrix(0.007595486111111109,0,0,0.007595486111111109,14.894748263888886,0)" xlink:href="#bs"/><use transform="matrix(0.007595486111111109,0,0,0.007595486111111109,24.480251736111107,0)" xlink:href="#aD"/><use transform="matrix(0.007595486111111109,0,0,0.007595486111111109,29.235026041666664,0)" xlink:href="#bq"/><use transform="matrix(0.007595486111111109,0,0,0.007595486111111109,39.03320312499999,0)" xlink:href="#aD"/><use transform="matrix(0.007595486111111109,0,0,0.007595486111111109,43.77278645833333,0)" xlink:href="#aF"/><use transform="matrix(0.007595486111111109,0,0,0.007595486111111109,54.26215277777777,0)" xlink:href="#aG"/><use transform="matrix(0.007595486111111109,0,0,0.007595486111111109,60.3005642361111,0)" xlink:href="#bp"/><use transform="matrix(0.007595486111111109,0,0,0.007595486111111109,69.85568576388887,0)" xlink:href="#aE"/></g><g id="ac"><use transform="matrix(0.007595486111111109,0,0,0.007595486111111109,0,0)" xlink:href="#bp"/><use transform="matrix(0.007595486111111109,0,0,0.007595486111111109,9.79817708333333,0)" xlink:href="#aD"/><use transform="matrix(0.007595486111111109,0,0,0.007595486111111109,14.894748263888886,0)" xlink:href="#bs"/><use transform="matrix(0.007595486111111109,0,0,0.007595486111111109,24.480251736111107,0)" xlink:href="#aD"/><use transform="matrix(0.007595486111111109,0,0,0.007595486111111109,29.21983506944444,0)" xlink:href="#aI"/><use transform="matrix(0.007595486111111109,0,0,0.007595486111111109,38.858506944444436,0)" xlink:href="#aD"/><use transform="matrix(0.007595486111111109,0,0,0.007595486111111109,43.59809027777777,0)" xlink:href="#aF"/><use transform="matrix(0.007595486111111109,0,0,0.007595486111111109,54.087456597222214,0)" xlink:href="#aG"/><use transform="matrix(0.007595486111111109,0,0,0.007595486111111109,60.12586805555554,0)" xlink:href="#bp"/><use transform="matrix(0.007595486111111109,0,0,0.007595486111111109,69.68098958333331,0)" xlink:href="#aE"/></g><g id="ad"><use transform="matrix(0.007595486111111109,0,0,0.007595486111111109,0,0)" xlink:href="#bp"/><use transform="matrix(0.007595486111111109,0,0,0.007595486111111109,9.79817708333333,0)" xlink:href="#aD"/><use transform="matrix(0.007595486111111109,0,0,0.007595486111111109,14.537760416666664,0)" xlink:href="#aI"/><use transform="matrix(0.007595486111111109,0,0,0.007595486111111109,24.17643229166666,0)" xlink:href="#aD"/><use transform="matrix(0.007595486111111109,0,0,0.007595486111111109,28.931206597222218,0)" xlink:href="#bq"/><use transform="matrix(0.007595486111111109,0,0,0.007595486111111109,38.72938368055555,0)" xlink:href="#aD"/><use transform="matrix(0.007595486111111109,0,0,0.007595486111111109,43.468967013888886,0)" xlink:href="#aF"/><use transform="matrix(0.007595486111111109,0,0,0.007595486111111109,53.95833333333333,0)" xlink:href="#aG"/><use transform="matrix(0.007595486111111109,0,0,0.007595486111111109,59.99674479166666,0)" xlink:href="#bp"/><use transform="matrix(0.007595486111111109,0,0,0.007595486111111109,69.55186631944443,0)" xlink:href="#aE"/></g><g id="ae"><use transform="matrix(0.007595486111111109,0,0,0.007595486111111109,0,0)" xlink:href="#bp"/><use transform="matrix(0.007595486111111109,0,0,0.007595486111111109,9.79817708333333,0)" xlink:href="#aD"/><use transform="matrix(0.007595486111111109,0,0,0.007595486111111109,14.894748263888886,0)" xlink:href="#bs"/><use transform="matrix(0.007595486111111109,0,0,0.007595486111111109,24.480251736111107,0)" xlink:href="#aD"/><use transform="matrix(0.007595486111111109,0,0,0.007595486111111109,29.28059895833333,0)" xlink:href="#br"/><use transform="matrix(0.007595486111111109,0,0,0.007595486111111109,36.382378472222214,0)" xlink:href="#aD"/><use transform="matrix(0.007595486111111109,0,0,0.007595486111111109,41.12196180555555,0)" xlink:href="#aF"/><use transform="matrix(0.007595486111111109,0,0,0.007595486111111109,51.61132812499999,0)" xlink:href="#aG"/><use transform="matrix(0.007595486111111109,0,0,0.007595486111111109,57.64973958333333,0)" xlink:href="#bp"/><use transform="matrix(0.007595486111111109,0,0,0.007595486111111109,67.2048611111111,0)" xlink:href="#aE"/></g><g id="af"><use transform="matrix(0.007595486111111109,0,0,0.007595486111111109,0,0)" xlink:href="#aC"/><use transform="matrix(0.007595486111111109,0,0,0.007595486111111109,9.714626736111107,0)" xlink:href="#aD"/><use transform="matrix(0.007595486111111109,0,0,0.007595486111111109,14.81119791666666,0)" xlink:href="#bs"/><use transform="matrix(0.007595486111111109,0,0,0.007595486111111109,24.396701388888882,0)" xlink:href="#aD"/><use transform="matrix(0.007595486111111109,0,0,0.007595486111111109,29.197048611111104,0)" xlink:href="#br"/><use transform="matrix(0.007595486111111109,0,0,0.007595486111111109,36.29882812499999,0)" xlink:href="#aD"/><use transform="matrix(0.007595486111111109,0,0,0.007595486111111109,41.03841145833333,0)" xlink:href="#aF"/><use transform="matrix(0.007595486111111109,0,0,0.007595486111111109,51.52777777777777,0)" xlink:href="#aG"/><use transform="matrix(0.007595486111111109,0,0,0.007595486111111109,57.5661892361111,0)" xlink:href="#bp"/><use transform="matrix(0.007595486111111109,0,0,0.007595486111111109,67.12131076388887,0)" xlink:href="#aE"/></g><path fill="#008573" d="M594-1490L347 0H42l247-1490h305" id="bt"/><g id="ag"><use transform="matrix(0.020616319444444437,0,0,0.020616319444444437,0,0)" xlink:href="#bt"/><use transform="matrix(0.020616319444444437,0,0,0.020616319444444437,11.854383680555552,0)" xlink:href="#an"/><use transform="matrix(0.020616319444444437,0,0,0.020616319444444437,39.4802517361111,0)" xlink:href="#aO"/></g><g id="ah"><use transform="matrix(0.020616319444444437,0,0,0.020616319444444437,0,0)" xlink:href="#aV"/><use transform="matrix(0.020616319444444437,0,0,0.020616319444444437,18.224826388888882,0)" xlink:href="#aq"/><use transform="matrix(0.020616319444444437,0,0,0.020616319444444437,46.67534722222219,0)" xlink:href="#aq"/><use transform="matrix(0.020616319444444437,0,0,0.020616319444444437,73.88888888888886,0)" xlink:href="#ap"/><use transform="matrix(0.020616319444444437,0,0,0.020616319444444437,86.75347222222219,0)" xlink:href="#aq"/><use transform="matrix(0.020616319444444437,0,0,0.020616319444444437,113.96701388888883,0)" xlink:href="#ap"/><use transform="matrix(0.020616319444444437,0,0,0.020616319444444437,126.83159722222216,0)" xlink:href="#aq"/><use transform="matrix(0.020616319444444437,0,0,0.020616319444444437,154.0451388888888,0)" xlink:href="#ap"/><use transform="matrix(0.020616319444444437,0,0,0.020616319444444437,166.90972222222214,0)" xlink:href="#aq"/><use transform="matrix(0.020616319444444437,0,0,0.020616319444444437,195.36024305555546,0)" xlink:href="#ar"/><use transform="matrix(0.020616319444444437,0,0,0.020616319444444437,211.7502170138888,0)" xlink:href="#as"/></g><path fill="#3a414a" d="M370-1490V0H180v-1490h190" id="bu"/><g id="ai"><use transform="matrix(0.017361111111111105,0,0,0.017361111111111105,0,0)" xlink:href="#bu"/><use transform="matrix(0.017361111111111105,0,0,0.017361111111111105,9.548611111111107,0)" xlink:href="#aJ"/></g><g id="aj"><use transform="matrix(0.010850694444444444,0,0,0.010850694444444444,0,0)" xlink:href="#ay"/><use transform="matrix(0.010850694444444444,0,0,0.010850694444444444,9.038628472222221,0)" xlink:href="#az"/><use transform="matrix(0.010850694444444444,0,0,0.010850694444444444,23.057725694444443,0)" xlink:href="#az"/><use transform="matrix(0.010850694444444444,0,0,0.010850694444444444,36.51258680555556,0)" xlink:href="#ax"/><use transform="matrix(0.010850694444444444,0,0,0.010850694444444444,42.350260416666664,0)" xlink:href="#az"/><use transform="matrix(0.010850694444444444,0,0,0.010850694444444444,55.80512152777778,0)" xlink:href="#ax"/><use transform="matrix(0.010850694444444444,0,0,0.010850694444444444,60.28645833333333,0)" xlink:href="#ay"/><use transform="matrix(0.010850694444444444,0,0,0.010850694444444444,69.32508680555554,0)" xlink:href="#ax"/><use transform="matrix(0.010850694444444444,0,0,0.010850694444444444,75.16276041666666,0)" xlink:href="#az"/><use transform="matrix(0.010850694444444444,0,0,0.010850694444444444,89.18185763888889,0)" xlink:href="#aA"/><use transform="matrix(0.010850694444444444,0,0,0.010850694444444444,97.18967013888889,0)" xlink:href="#aJ"/><use transform="matrix(0.010850694444444444,0,0,0.010850694444444444,110.39496527777777,0)" xlink:href="#aw"/></g><g id="ak"><use transform="matrix(0.010850694444444444,0,0,0.010850694444444444,0,0)" xlink:href="#ax"/><use transform="matrix(0.010850694444444444,0,0,0.010850694444444444,6.401909722222222,0)" xlink:href="#aJ"/></g></defs></g></svg>