<svg xmlns="http://www.w3.org/2000/svg" xmlns:xlink="http://www.w3.org/1999/xlink" xmlns:lucid="lucid" width="1471" height="1141"><g transform="translate(-29.83333333333337 -242.83333333333337)" lucid:page-tab-id="ggxnvRuIpF.M"><path d="M0 0h1500v1500H0z" fill="#fff"/><path d="M822.83 493.33h295" stroke="#3a414a" stroke-width="5" stroke-linecap="round" fill="none"/><path d="M925.67 309.33a6 6 0 0 1 6-6h68a6 6 0 0 1 6 6v108a6 6 0 0 1-6 6h-68a6 6 0 0 1-6-6z" stroke="#3a414a" fill="#dfe3e8"/><use xlink:href="#a" transform="matrix(1,0,0,1,930.6662839095816,308.33333333333337) translate(27.006172839506174 59.02777777777778)"/><path d="M650.33 269.33a6 6 0 0 1 6-6h68a6 6 0 0 1 6 6v108a6 6 0 0 1-6 6h-68a6 6 0 0 1-6-6z" stroke="#3a414a" fill="#dfe3e8"/><use xlink:href="#b" transform="matrix(1,0,0,1,655.3333333333334,268.33333333333337) translate(27.006172839506174 59.02777777777778)"/><path d="M90.33 549.33a6 6 0 0 1 6-6h68a6 6 0 0 1 6 6v108a6 6 0 0 1-6 6h-68a6 6 0 0 1-6-6z" stroke="#3a414a" fill="#dfe3e8"/><use xlink:href="#c" transform="matrix(1,0,0,1,95.33333333333337,548.3333333333334) translate(27.592592592592595 59.02777777777778)"/><path d="M160.33 869.33a6 6 0 0 1 6-6h68a6 6 0 0 1 6 6v108a6 6 0 0 1-6 6h-68a6 6 0 0 1-6-6z" stroke="#3a414a" fill="#dfe3e8"/><use xlink:href="#d" transform="matrix(1,0,0,1,165.33333333333337,868.3333333333334) translate(27.592592592592595 59.02777777777778)"/><path d="M1180.33 298.33a6 6 0 0 1 6-6h68a6 6 0 0 1 6 6v108a6 6 0 0 1-6 6h-68a6 6 0 0 1-6-6z" stroke="#3a414a" fill="#dfe3e8"/><use xlink:href="#e" transform="matrix(1,0,0,1,1185.3333333333335,297.33343596463874) translate(27.592592592592595 59.02777777777778)"/><path d="M1101.85 1019.33a6 6 0 0 1 6-6h13a6 6 0 0 0 6-6v-13a6 6 0 0 1 6-6h38a6 6 0 0 1 6 6v13a6 6 0 0 0 6 6h13a6 6 0 0 1 6 6v38a6 6 0 0 1-6 6h-13a6 6 0 0 0-6 6v13a6 6 0 0 1-6 6h-38a6 6 0 0 1-6-6v-13a6 6 0 0 0-6-6h-13a6 6 0 0 1-6-6z" stroke="#1071e5" stroke-width="2" fill="#edf5ff"/><use xlink:href="#f" transform="matrix(1,0,0,1,1106.8468156822323,993.3333333333334) translate(38.82716049382716 48.71527777777778)"/><path d="M1162.83 488.33h295M462.83 445.83h295M72.83 705.83h295M52.83 1065.83h295M908.34 1190.83h295" stroke="#3a414a" stroke-width="5" stroke-linecap="round" fill="none"/><path d="M1060.33 595.33a6 6 0 0 1 6-6h13a6 6 0 0 0 6-6v-13a6 6 0 0 1 6-6h38a6 6 0 0 1 6 6v13a6 6 0 0 0 6 6h13a6 6 0 0 1 6 6v38a6 6 0 0 1-6 6h-13a6 6 0 0 0-6 6v13a6 6 0 0 1-6 6h-38a6 6 0 0 1-6-6v-13a6 6 0 0 0-6-6h-13a6 6 0 0 1-6-6z" stroke="#1071e5" stroke-width="2" fill="#edf5ff"/><use xlink:href="#g" transform="matrix(1,0,0,1,1065.3333333333335,569.333230702028) translate(38.82716049382716 48.71527777777778)"/><path d="M860.33 596.33a6 6 0 0 1 6-6h13a6 6 0 0 0 6-6v-13a6 6 0 0 1 6-6h38a6 6 0 0 1 6 6v13a6 6 0 0 0 6 6h13a6 6 0 0 1 6 6v38a6 6 0 0 1-6 6h-13a6 6 0 0 0-6 6v13a6 6 0 0 1-6 6h-38a6 6 0 0 1-6-6v-13a6 6 0 0 0-6-6h-13a6 6 0 0 1-6-6z" stroke="#1071e5" stroke-width="2" fill="#edf5ff"/><use xlink:href="#h" transform="matrix(1,0,0,1,865.3333333333334,570.3331280707226) translate(38.82716049382716 48.71527777777778)"/><path d="M560.33 515.33a6 6 0 0 1 6-6h13a6 6 0 0 0 6-6v-13a6 6 0 0 1 6-6h38a6 6 0 0 1 6 6v13a6 6 0 0 0 6 6h13a6 6 0 0 1 6 6v38a6 6 0 0 1-6 6h-13a6 6 0 0 0-6 6v13a6 6 0 0 1-6 6h-38a6 6 0 0 1-6-6v-13a6 6 0 0 0-6-6h-13a6 6 0 0 1-6-6z" stroke="#1071e5" stroke-width="2" fill="#edf5ff"/><use xlink:href="#i" transform="matrix(1,0,0,1,565.3333333333334,489.33333333333337) translate(38.82716049382716 48.71527777777778)"/><path d="M420.33 874.33a6 6 0 0 1 6-6h13a6 6 0 0 0 6-6v-13a6 6 0 0 1 6-6h38a6 6 0 0 1 6 6v13a6 6 0 0 0 6 6h13a6 6 0 0 1 6 6v38a6 6 0 0 1-6 6h-13a6 6 0 0 0-6 6v13a6 6 0 0 1-6 6h-38a6 6 0 0 1-6-6v-13a6 6 0 0 0-6-6h-13a6 6 0 0 1-6-6z" stroke="#1071e5" stroke-width="2" fill="#edf5ff"/><use xlink:href="#j" transform="matrix(1,0,0,1,425.33333333333337,848.3333333333334) translate(38.82716049382716 48.71527777777778)"/><path d="M420.33 1109.33a6 6 0 0 1 6-6h13a6 6 0 0 0 6-6v-13a6 6 0 0 1 6-6h38a6 6 0 0 1 6 6v13a6 6 0 0 0 6 6h13a6 6 0 0 1 6 6v38a6 6 0 0 1-6 6h-13a6 6 0 0 0-6 6v13a6 6 0 0 1-6 6h-38a6 6 0 0 1-6-6v-13a6 6 0 0 0-6-6h-13a6 6 0 0 1-6-6z" stroke="#1071e5" stroke-width="2" fill="#edf5ff"/><use xlink:href="#k" transform="matrix(1,0,0,1,425.33333333333337,1083.3333333333335) translate(38.82716049382716 48.71527777777778)"/><path d="M492.83 745.83h385" stroke="#3a414a" stroke-width="5" stroke-linecap="round" fill="none"/><path d="M965.67 424.33v66" stroke="#3a414a" fill="none"/><path d="M966.14 424.35h-.95v-.52h.94zM966.14 490.83h-.95v-.5h.94z" stroke="#3a414a" stroke-width=".05" fill="#3a414a"/><path d="M961.83 615.33h97" stroke="#3a414a" fill="none"/><path d="M961.85 615.8h-.52v-.94h.52zM1059.33 615.82h-.5v-.95h.5z" stroke="#3a414a" stroke-width=".05" fill="#3a414a"/><path d="M610.33 482.83v-34" stroke="#3a414a" fill="none"/><path d="M610.8 483.33h-.94v-.5h.95zM610.8 448.85h-.94v-.52h.95z" stroke="#3a414a" stroke-width=".05" fill="#3a414a"/><path d="M649.33 323.33h-53.66a6 6 0 0 0-6 6v113.5" stroke="#3a414a" fill="none"/><path d="M649.83 323.8h-.5v-.94h.5zM590.14 443.33h-.95v-.5h.94z" stroke="#3a414a" stroke-width=".05" fill="#3a414a"/><path d="M610.33 585.83v72.5a6 6 0 0 0 6 6h72.54a6 6 0 0 1 6 6v72.5" stroke="#3a414a" fill="none"/><path d="M610.8 585.85h-.94v-.52h.95zM695.34 743.33h-.95v-.5h.94z" stroke="#3a414a" stroke-width=".05" fill="#3a414a"/><path d="M858.83 615.33h-85.16a6 6 0 0 0-6 6v121.5" stroke="#3a414a" fill="none"/><path d="M859.33 615.8h-.5v-.94h.5zM768.15 743.33h-.95v-.5h.95z" stroke="#3a414a" stroke-width=".05" fill="#3a414a"/><path d="M521.83 893.33h54.37a6 6 0 0 0 6-6v-138.5" stroke="#3a414a" fill="none"/><path d="M521.85 893.8h-.52v-.94h.52zM582.67 748.85h-.95v-.52h.95z" stroke="#3a414a" stroke-width=".05" fill="#3a414a"/><path d="M962.83 845.83h295" stroke="#3a414a" stroke-width="5" stroke-linecap="round" fill="none"/><path d="M521.83 1128.33h497.83a6 6 0 0 0 6-6v-273.5" stroke="#3a414a" fill="none"/><path d="M521.85 1128.8h-.52v-.94h.52zM1026.14 848.85h-.95v-.52h.94z" stroke="#3a414a" stroke-width=".05" fill="#3a414a"/><path d="M1055.84 1241.33v-47.5M1055.84 1241.32v.5" stroke="#3a414a" fill="none"/><path d="M1056.32 1193.85h-.95v-.52h.95z" stroke="#3a414a" stroke-width=".05" fill="#3a414a"/><path d="M1151.85 1089.83v98" stroke="#3a414a" fill="none"/><path d="M1152.32 1089.85h-.95v-.52h.95zM1152.32 1188.33h-.95v-.5h.95z" stroke="#3a414a" stroke-width=".05" fill="#3a414a"/><path d="M470.33 944.83v132" stroke="#3a414a" fill="none"/><path d="M470.8 944.85h-.94v-.52h.95zM470.8 1077.33h-.94v-.5h.95z" stroke="#3a414a" stroke-width=".05" fill="#3a414a"/><path d="M159.33 923.33h-29a6 6 0 0 0-6 6v133.5" stroke="#3a414a" fill="none"/><path d="M159.83 923.8h-.5v-.94h.5zM124.8 1063.33h-.95v-.5h.95z" stroke="#3a414a" stroke-width=".05" fill="#3a414a"/><path d="M1161.83 614.33h99a6 6 0 0 0 6-6v-117" stroke="#3a414a" fill="none"/><path d="M1161.85 614.8h-.52v-.94h.52zM1267.3 491.35h-.94v-.52h.95z" stroke="#3a414a" stroke-width=".05" fill="#3a414a"/><path d="M1110.33 665.83v177" stroke="#3a414a" fill="none"/><path d="M1110.8 665.85h-.94v-.52h.95zM1110.8 843.33h-.94v-.5h.95z" stroke="#3a414a" stroke-width=".05" fill="#3a414a"/><path d="M418.83 1128.33H213a6 6 0 0 1-6-6v-53.5" stroke="#3a414a" fill="none"/><path d="M419.33 1128.8h-.5v-.94h.5zM207.47 1068.85h-.94v-.52h.94z" stroke="#3a414a" stroke-width=".05" fill="#3a414a"/><path d="M418.83 893.33h-112.5a6 6 0 0 1-6-6v-178.5" stroke="#3a414a" fill="none"/><path d="M419.33 893.8h-.5v-.94h.5zM300.8 708.85h-.94v-.52h.95z" stroke="#3a414a" stroke-width=".05" fill="#3a414a"/><path d="M910.33 563.83v-67.5" stroke="#3a414a" fill="none"/><path d="M910.8 564.33h-.94v-.5h.95zM910.8 496.35h-.94v-.52h.95z" stroke="#3a414a" stroke-width=".05" fill="#3a414a"/><path d="M1151.85 986.83v-138" stroke="#3a414a" fill="none"/><path d="M1152.32 987.33h-.95v-.5h.95zM1152.32 848.85h-.95v-.52h.95z" stroke="#3a414a" stroke-width=".05" fill="#3a414a"/><path d="M171.33 603.33H211a6 6 0 0 1 6 6v93.5" stroke="#3a414a" fill="none"/><path d="M171.35 603.8h-.52v-.94h.52zM217.47 703.33h-.94v-.5h.94z" stroke="#3a414a" stroke-width=".05" fill="#3a414a"/><path d="M1261.33 352.33h65a6 6 0 0 1 6 6v127" stroke="#000" fill="none"/><path d="M1261.35 352.8h-.52v-.94h.52zM1332.8 485.83h-.94v-.5h.95z" stroke="#000" stroke-width=".05"/><path d="M130.33 1024.33a6 6 0 0 1 6-6h228a6 6 0 0 1 6 6v48a6 6 0 0 1-6 6h-228a6 6 0 0 1-6-6z" stroke="#000" stroke-opacity="0" fill="#fff" fill-opacity="0"/><use xlink:href="#l" transform="matrix(1,0,0,1,135.33333333333337,1023.3333333333334) translate(71.79012345679013 30.27777777777778)"/><path d="M905.84 1141.83a6 6 0 0 1 6-6h228a6 6 0 0 1 6 6v48a6 6 0 0 1-6 6h-228a6 6 0 0 1-6-6z" stroke="#000" stroke-opacity="0" fill="#fff" fill-opacity="0"/><use xlink:href="#m" transform="matrix(1,0,0,1,910.8440477931484,1140.8333333333335) translate(71.79012345679013 30.27777777777778)"/><path d="M900.33 789.33a6 6 0 0 1 6-6h228a6 6 0 0 1 6 6v48a6 6 0 0 1-6 6h-228a6 6 0 0 1-6-6z" stroke="#000" stroke-opacity="0" fill="#fff" fill-opacity="0"/><use xlink:href="#n" transform="matrix(1,0,0,1,905.3333333333334,788.3333333333334) translate(71.79012345679013 30.27777777777778)"/><path d="M610.33 754.33a6 6 0 0 1 6-6h228a6 6 0 0 1 6 6v48a6 6 0 0 1-6 6h-228a6 6 0 0 1-6-6z" stroke="#000" stroke-opacity="0" fill="#fff" fill-opacity="0"/><use xlink:href="#o" transform="matrix(1,0,0,1,615.3333333333334,753.3333333333334) translate(71.79012345679013 30.27777777777778)"/><path d="M50.33 714.33a6 6 0 0 1 6-6h228a6 6 0 0 1 6 6v48a6 6 0 0 1-6 6h-228a6 6 0 0 1-6-6z" stroke="#000" stroke-opacity="0" fill="#fff" fill-opacity="0"/><use xlink:href="#p" transform="matrix(1,0,0,1,55.33333333333337,713.3333333333334) translate(71.79012345679013 30.27777777777778)"/><path d="M540.33 394.33a6 6 0 0 1 6-6h228a6 6 0 0 1 6 6v48a6 6 0 0 1-6 6h-228a6 6 0 0 1-6-6z" stroke="#000" stroke-opacity="0" fill="#fff" fill-opacity="0"/><use xlink:href="#q" transform="matrix(1,0,0,1,545.3333333333334,393.33333333333337) translate(71.79012345679013 30.27777777777778)"/><path d="M925.67 441.83a6 6 0 0 1 6-6h228a6 6 0 0 1 6 6v48a6 6 0 0 1-6 6h-228a6 6 0 0 1-6-6z" stroke="#000" stroke-opacity="0" fill="#fff" fill-opacity="0"/><use xlink:href="#r" transform="matrix(1,0,0,1,930.6662839095419,440.83333333333337) translate(71.79012345679013 30.27777777777778)"/><path d="M1240.33 496.83a6 6 0 0 1 6-6h228a6 6 0 0 1 6 6v48a6 6 0 0 1-6 6h-228a6 6 0 0 1-6-6z" stroke="#000" stroke-opacity="0" fill="#fff" fill-opacity="0"/><use xlink:href="#s" transform="matrix(1,0,0,1,1245.3333333333335,495.83333333333337) translate(71.79012345679013 30.27777777777778)"/><path d="M893.34 549.33a6 6 0 0 1 6-6h228a6 6 0 0 1 6 6v48a6 6 0 0 1-6 6h-228a6 6 0 0 1-6-6z" stroke="#000" stroke-opacity="0" fill="#fff" fill-opacity="0"/><use xlink:href="#t" transform="matrix(1,0,0,1,898.3440477931159,548.3333333333334) translate(65.61728395061729 30.27777777777778)"/><path d="M490.33 949.33a6 6 0 0 1 6-6h228a6 6 0 0 1 6 6v83a6 6 0 0 1-6 6h-228a6 6 0 0 1-6-6z" stroke="#000" stroke-opacity="0" fill="#fff" fill-opacity="0"/><use xlink:href="#u" transform="matrix(1,0,0,1,495.33333333333337,948.3333333333334) translate(71.79012345679013 46.99652777777778)"/><path d="M170.33 549.33a6 6 0 0 1 6-6h58a6 6 0 0 1 6 6v48a6 6 0 0 1-6 6h-58a6 6 0 0 1-6-6z" stroke="#000" stroke-opacity="0" fill="#fff" fill-opacity="0"/><use xlink:href="#v" transform="matrix(1,0,0,1,175.33333333333337,548.3333333333334) translate(8.395061728395063 30.27777777777778)"/><path d="M80.33 869.33a6 6 0 0 1 6-6h58a6 6 0 0 1 6 6v48a6 6 0 0 1-6 6h-58a6 6 0 0 1-6-6z" stroke="#000" stroke-opacity="0" fill="#fff" fill-opacity="0"/><use xlink:href="#w" transform="matrix(1,0,0,1,85.33333333333337,868.3333333333334) translate(8.395061728395063 30.27777777777778)"/><path d="M560.33 269.33a6 6 0 0 1 6-6h58a6 6 0 0 1 6 6v48a6 6 0 0 1-6 6h-58a6 6 0 0 1-6-6z" stroke="#000" stroke-opacity="0" fill="#fff" fill-opacity="0"/><use xlink:href="#x" transform="matrix(1,0,0,1,565.3333333333334,268.33333333333337) translate(8.395061728395063 30.27777777777778)"/><path d="M900.33 421.83a6 6 0 0 1 6-6h58a6 6 0 0 1 6 6v48a6 6 0 0 1-6 6h-58a6 6 0 0 1-6-6z" stroke="#000" stroke-opacity="0" fill="#fff" fill-opacity="0"/><use xlink:href="#y" transform="matrix(1,0,0,1,905.3333333333334,420.83333333333337) translate(8.395061728395063 30.27777777777778)"/><path d="M1260.33 299.33a6 6 0 0 1 6-6h58a6 6 0 0 1 6 6v48a6 6 0 0 1-6 6h-58a6 6 0 0 1-6-6z" stroke="#000" stroke-opacity="0" fill="#fff" fill-opacity="0"/><use xlink:href="#z" transform="matrix(1,0,0,1,1265.3333333333335,298.33333333333337) translate(8.395061728395063 30.27777777777778)"/><path d="M970.33 1201.83a6 6 0 0 1 6-6h58a6 6 0 0 1 6 6v48a6 6 0 0 1-6 6h-58a6 6 0 0 1-6-6z" stroke="#000" stroke-opacity="0" fill="#fff" fill-opacity="0"/><use xlink:href="#A" transform="matrix(1,0,0,1,975.3333333333334,1200.8333333333335) translate(8.395061728395063 30.27777777777778)"/><path d="M320.33 269.33a6 6 0 0 1 6-6h68a6 6 0 0 1 6 6v108a6 6 0 0 1-6 6h-68a6 6 0 0 1-6-6z" stroke="#3a414a" fill="#dfe3e8"/><use xlink:href="#B" transform="matrix(1,0,0,1,325.33333333333337,268.33333333333337) translate(28.24074074074074 59.02777777777778)"/><path d="M401.33 323.33h85a6 6 0 0 1 6 6v113.5" stroke="#000" fill="none"/><path d="M401.35 323.8h-.52v-.94h.52zM492.8 443.33h-.95v-.5h.95z" stroke="#000" stroke-width=".05"/><path d="M400.33 269.33a6 6 0 0 1 6-6h58a6 6 0 0 1 6 6v48a6 6 0 0 1-6 6h-58a6 6 0 0 1-6-6z" stroke="#000" stroke-opacity="0" fill="#fff" fill-opacity="0"/><use xlink:href="#C" transform="matrix(1,0,0,1,405.33333333333337,268.33333333333337) translate(8.395061728395063 30.27777777777778)"/><path d="M1015.84 1249.33a6 6 0 0 1 6-6h68a6 6 0 0 1 6 6v108a6 6 0 0 1-6 6h-68a6 6 0 0 1-6-6z" stroke="#008573" fill="#c3f7c8"/><use xlink:href="#D" transform="matrix(1,0,0,1,1020.8440477931159,1248.3333333333335) translate(11.60493827160494 59.02777777777778)"/><path d="M350.33 519.33a6 6 0 0 1 6-6h68a6 6 0 0 1 6 6v108a6 6 0 0 1-6 6h-68a6 6 0 0 1-6-6z" stroke="#3a414a" fill="#dfe3e8"/><use xlink:href="#E" transform="matrix(1,0,0,1,355.33333333333337,518.3333333333334) translate(27.006172839506174 59.02777777777778)"/><path d="M431.33 573.33H529a6 6 0 0 1 6 6v163.5" stroke="#000" fill="none"/><path d="M431.35 573.8h-.52v-.94h.52zM535.48 743.33h-.96v-.5h.96z" stroke="#000" stroke-width=".05"/><path d="M440.33 589.33a6 6 0 0 1 6-6h58a6 6 0 0 1 6 6v48a6 6 0 0 1-6 6h-58a6 6 0 0 1-6-6z" stroke="#000" stroke-opacity="0" fill="#fff" fill-opacity="0"/><use xlink:href="#F" transform="matrix(1,0,0,1,445.33333333333337,588.3333333333334) translate(8.395061728395063 30.27777777777778)"/><path d="M382.83 1011.46h295M1013.34 593.33v124.34" stroke="#3a414a" stroke-width="5" stroke-linecap="round" fill="none"/><defs><path fill="#3a414a" d="M30-248c118-7 216 8 213 122C240-48 200 0 122 0H30v-248zM63-27c89 8 146-16 146-99s-60-101-146-95v194" id="G"/><use transform="matrix(0.06172839506172839,0,0,0.06172839506172839,0,0)" xlink:href="#G" id="a"/><path fill="#3a414a" d="M212-179c-10-28-35-45-73-45-59 0-87 40-87 99 0 60 29 101 89 101 43 0 62-24 78-52l27 14C228-24 195 4 139 4 59 4 22-46 18-125c-6-104 99-153 187-111 19 9 31 26 39 46" id="H"/><use transform="matrix(0.06172839506172839,0,0,0.06172839506172839,0,0)" xlink:href="#H" id="b"/><path fill="#3a414a" d="M160-131c35 5 61 23 61 61C221 17 115-2 30 0v-248c76 3 177-17 177 60 0 33-19 50-47 57zm-97-11c50-1 110 9 110-42 0-47-63-36-110-37v79zm0 115c55-2 124 14 124-45 0-56-70-42-124-44v89" id="I"/><use transform="matrix(0.06172839506172839,0,0,0.06172839506172839,0,0)" xlink:href="#I" id="c"/><path fill="#3a414a" d="M205 0l-28-72H64L36 0H1l101-248h38L239 0h-34zm-38-99l-47-123c-12 45-31 82-46 123h93" id="J"/><use transform="matrix(0.06172839506172839,0,0,0.06172839506172839,0,0)" xlink:href="#J" id="d"/><path fill="#3a414a" d="M30 0v-248h187v28H63v79h144v27H63v87h162V0H30" id="K"/><use transform="matrix(0.06172839506172839,0,0,0.06172839506172839,0,0)" xlink:href="#K" id="e"/><path fill="#3a414a" d="M110-160c48 1 74 30 74 79 0 53-28 85-80 85-65 0-83-55-86-122-5-90 50-162 133-122 14 7 22 21 27 39l-31 6c-5-40-67-38-82-6-9 19-15 44-15 74 11-20 30-34 60-33zm-7 138c34 0 49-23 49-58s-16-56-50-56c-29 0-50 16-49 49 1 36 15 65 50 65" id="L"/><use transform="matrix(0.06172839506172839,0,0,0.06172839506172839,0,0)" xlink:href="#L" id="f"/><path fill="#3a414a" d="M54-142c48-35 137-8 131 61C196 18 31 33 14-55l32-4c7 23 22 37 52 37 35-1 51-22 54-58 4-55-73-65-99-34H22l8-134h141v27H59" id="M"/><use transform="matrix(0.06172839506172839,0,0,0.06172839506172839,0,0)" xlink:href="#M" id="g"/><path fill="#3a414a" d="M155-56V0h-30v-56H8v-25l114-167h33v167h35v25h-35zm-30-156c-27 46-58 90-88 131h88v-131" id="N"/><use transform="matrix(0.06172839506172839,0,0,0.06172839506172839,0,0)" xlink:href="#N" id="h"/><path fill="#3a414a" d="M126-127c33 6 58 20 58 59 0 88-139 92-164 29-3-8-5-16-6-25l32-3c6 27 21 44 54 44 32 0 52-15 52-46 0-38-36-46-79-43v-28c39 1 72-4 72-42 0-27-17-43-46-43-28 0-47 15-49 41l-32-3c6-42 35-63 81-64 48-1 79 21 79 65 0 36-21 52-52 59" id="O"/><use transform="matrix(0.06172839506172839,0,0,0.06172839506172839,0,0)" xlink:href="#O" id="i"/><path fill="#3a414a" d="M101-251c82-7 93 87 43 132L82-64C71-53 59-42 53-27h129V0H18c2-99 128-94 128-182 0-28-16-43-45-43s-46 15-49 41l-32-3c6-41 34-60 81-64" id="P"/><use transform="matrix(0.06172839506172839,0,0,0.06172839506172839,0,0)" xlink:href="#P" id="j"/><path fill="#3a414a" d="M27 0v-27h64v-190l-56 39v-29l58-41h29v221h61V0H27" id="Q"/><use transform="matrix(0.06172839506172839,0,0,0.06172839506172839,0,0)" xlink:href="#Q" id="k"/><path fill="#3a414a" d="M33 0v-38h34V0H33" id="R"/><path fill="#3a414a" d="M101-251c68 0 85 55 85 127S166 4 100 4C33 4 14-52 14-124c0-73 17-127 87-127zm-1 229c47 0 54-49 54-102s-4-102-53-102c-51 0-55 48-55 102 0 53 5 102 54 102" id="S"/><path fill="#3a414a" d="M0 4l72-265h28L28 4H0" id="T"/><path fill="#3a414a" d="M134-131c28 9 52 24 51 62-1 50-34 73-85 73S17-19 16-69c0-36 21-54 49-61-75-25-45-126 34-121 46 3 78 18 79 63 0 33-17 51-44 57zm-34-11c31 1 46-15 46-44 0-28-17-43-47-42-29 0-46 13-45 42 1 28 16 44 46 44zm1 122c35 0 51-18 51-52 0-30-18-46-53-46-33 0-51 17-51 47 0 34 19 51 53 51" id="U"/><g id="l"><use transform="matrix(0.06172839506172839,0,0,0.06172839506172839,0,0)" xlink:href="#Q"/><use transform="matrix(0.06172839506172839,0,0,0.06172839506172839,12.345679012345679,0)" xlink:href="#R"/><use transform="matrix(0.06172839506172839,0,0,0.06172839506172839,18.51851851851852,0)" xlink:href="#S"/><use transform="matrix(0.06172839506172839,0,0,0.06172839506172839,30.864197530864196,0)" xlink:href="#R"/><use transform="matrix(0.06172839506172839,0,0,0.06172839506172839,37.03703703703704,0)" xlink:href="#S"/><use transform="matrix(0.06172839506172839,0,0,0.06172839506172839,49.382716049382715,0)" xlink:href="#R"/><use transform="matrix(0.06172839506172839,0,0,0.06172839506172839,55.55555555555556,0)" xlink:href="#S"/><use transform="matrix(0.06172839506172839,0,0,0.06172839506172839,67.90123456790124,0)" xlink:href="#T"/><use transform="matrix(0.06172839506172839,0,0,0.06172839506172839,74.07407407407408,0)" xlink:href="#U"/></g><g id="m"><use transform="matrix(0.06172839506172839,0,0,0.06172839506172839,0,0)" xlink:href="#P"/><use transform="matrix(0.06172839506172839,0,0,0.06172839506172839,12.345679012345679,0)" xlink:href="#R"/><use transform="matrix(0.06172839506172839,0,0,0.06172839506172839,18.51851851851852,0)" xlink:href="#S"/><use transform="matrix(0.06172839506172839,0,0,0.06172839506172839,30.864197530864196,0)" xlink:href="#R"/><use transform="matrix(0.06172839506172839,0,0,0.06172839506172839,37.03703703703704,0)" xlink:href="#S"/><use transform="matrix(0.06172839506172839,0,0,0.06172839506172839,49.382716049382715,0)" xlink:href="#R"/><use transform="matrix(0.06172839506172839,0,0,0.06172839506172839,55.55555555555556,0)" xlink:href="#S"/><use transform="matrix(0.06172839506172839,0,0,0.06172839506172839,67.90123456790124,0)" xlink:href="#T"/><use transform="matrix(0.06172839506172839,0,0,0.06172839506172839,74.07407407407408,0)" xlink:href="#U"/></g><g id="n"><use transform="matrix(0.06172839506172839,0,0,0.06172839506172839,0,0)" xlink:href="#O"/><use transform="matrix(0.06172839506172839,0,0,0.06172839506172839,12.345679012345679,0)" xlink:href="#R"/><use transform="matrix(0.06172839506172839,0,0,0.06172839506172839,18.51851851851852,0)" xlink:href="#S"/><use transform="matrix(0.06172839506172839,0,0,0.06172839506172839,30.864197530864196,0)" xlink:href="#R"/><use transform="matrix(0.06172839506172839,0,0,0.06172839506172839,37.03703703703704,0)" xlink:href="#S"/><use transform="matrix(0.06172839506172839,0,0,0.06172839506172839,49.382716049382715,0)" xlink:href="#R"/><use transform="matrix(0.06172839506172839,0,0,0.06172839506172839,55.55555555555556,0)" xlink:href="#S"/><use transform="matrix(0.06172839506172839,0,0,0.06172839506172839,67.90123456790124,0)" xlink:href="#T"/><use transform="matrix(0.06172839506172839,0,0,0.06172839506172839,74.07407407407408,0)" xlink:href="#U"/></g><g id="o"><use transform="matrix(0.06172839506172839,0,0,0.06172839506172839,0,0)" xlink:href="#N"/><use transform="matrix(0.06172839506172839,0,0,0.06172839506172839,12.345679012345679,0)" xlink:href="#R"/><use transform="matrix(0.06172839506172839,0,0,0.06172839506172839,18.51851851851852,0)" xlink:href="#S"/><use transform="matrix(0.06172839506172839,0,0,0.06172839506172839,30.864197530864196,0)" xlink:href="#R"/><use transform="matrix(0.06172839506172839,0,0,0.06172839506172839,37.03703703703704,0)" xlink:href="#S"/><use transform="matrix(0.06172839506172839,0,0,0.06172839506172839,49.382716049382715,0)" xlink:href="#R"/><use transform="matrix(0.06172839506172839,0,0,0.06172839506172839,55.55555555555556,0)" xlink:href="#S"/><use transform="matrix(0.06172839506172839,0,0,0.06172839506172839,67.90123456790124,0)" xlink:href="#T"/><use transform="matrix(0.06172839506172839,0,0,0.06172839506172839,74.07407407407408,0)" xlink:href="#U"/></g><g id="p"><use transform="matrix(0.06172839506172839,0,0,0.06172839506172839,0,0)" xlink:href="#M"/><use transform="matrix(0.06172839506172839,0,0,0.06172839506172839,12.345679012345679,0)" xlink:href="#R"/><use transform="matrix(0.06172839506172839,0,0,0.06172839506172839,18.51851851851852,0)" xlink:href="#S"/><use transform="matrix(0.06172839506172839,0,0,0.06172839506172839,30.864197530864196,0)" xlink:href="#R"/><use transform="matrix(0.06172839506172839,0,0,0.06172839506172839,37.03703703703704,0)" xlink:href="#S"/><use transform="matrix(0.06172839506172839,0,0,0.06172839506172839,49.382716049382715,0)" xlink:href="#R"/><use transform="matrix(0.06172839506172839,0,0,0.06172839506172839,55.55555555555556,0)" xlink:href="#S"/><use transform="matrix(0.06172839506172839,0,0,0.06172839506172839,67.90123456790124,0)" xlink:href="#T"/><use transform="matrix(0.06172839506172839,0,0,0.06172839506172839,74.07407407407408,0)" xlink:href="#U"/></g><g id="q"><use transform="matrix(0.06172839506172839,0,0,0.06172839506172839,0,0)" xlink:href="#L"/><use transform="matrix(0.06172839506172839,0,0,0.06172839506172839,12.345679012345679,0)" xlink:href="#R"/><use transform="matrix(0.06172839506172839,0,0,0.06172839506172839,18.51851851851852,0)" xlink:href="#S"/><use transform="matrix(0.06172839506172839,0,0,0.06172839506172839,30.864197530864196,0)" xlink:href="#R"/><use transform="matrix(0.06172839506172839,0,0,0.06172839506172839,37.03703703703704,0)" xlink:href="#S"/><use transform="matrix(0.06172839506172839,0,0,0.06172839506172839,49.382716049382715,0)" xlink:href="#R"/><use transform="matrix(0.06172839506172839,0,0,0.06172839506172839,55.55555555555556,0)" xlink:href="#S"/><use transform="matrix(0.06172839506172839,0,0,0.06172839506172839,67.90123456790124,0)" xlink:href="#T"/><use transform="matrix(0.06172839506172839,0,0,0.06172839506172839,74.07407407407408,0)" xlink:href="#U"/></g><path fill="#3a414a" d="M64 0c3-98 48-159 88-221H18v-27h164v26C143-157 98-101 97 0H64" id="V"/><g id="r"><use transform="matrix(0.06172839506172839,0,0,0.06172839506172839,0,0)" xlink:href="#V"/><use transform="matrix(0.06172839506172839,0,0,0.06172839506172839,12.345679012345679,0)" xlink:href="#R"/><use transform="matrix(0.06172839506172839,0,0,0.06172839506172839,18.51851851851852,0)" xlink:href="#S"/><use transform="matrix(0.06172839506172839,0,0,0.06172839506172839,30.864197530864196,0)" xlink:href="#R"/><use transform="matrix(0.06172839506172839,0,0,0.06172839506172839,37.03703703703704,0)" xlink:href="#S"/><use transform="matrix(0.06172839506172839,0,0,0.06172839506172839,49.382716049382715,0)" xlink:href="#R"/><use transform="matrix(0.06172839506172839,0,0,0.06172839506172839,55.55555555555556,0)" xlink:href="#S"/><use transform="matrix(0.06172839506172839,0,0,0.06172839506172839,67.90123456790124,0)" xlink:href="#T"/><use transform="matrix(0.06172839506172839,0,0,0.06172839506172839,74.07407407407408,0)" xlink:href="#U"/></g><g id="s"><use transform="matrix(0.06172839506172839,0,0,0.06172839506172839,0,0)" xlink:href="#U"/><use transform="matrix(0.06172839506172839,0,0,0.06172839506172839,12.345679012345679,0)" xlink:href="#R"/><use transform="matrix(0.06172839506172839,0,0,0.06172839506172839,18.51851851851852,0)" xlink:href="#S"/><use transform="matrix(0.06172839506172839,0,0,0.06172839506172839,30.864197530864196,0)" xlink:href="#R"/><use transform="matrix(0.06172839506172839,0,0,0.06172839506172839,37.03703703703704,0)" xlink:href="#S"/><use transform="matrix(0.06172839506172839,0,0,0.06172839506172839,49.382716049382715,0)" xlink:href="#R"/><use transform="matrix(0.06172839506172839,0,0,0.06172839506172839,55.55555555555556,0)" xlink:href="#S"/><use transform="matrix(0.06172839506172839,0,0,0.06172839506172839,67.90123456790124,0)" xlink:href="#T"/><use transform="matrix(0.06172839506172839,0,0,0.06172839506172839,74.07407407407408,0)" xlink:href="#U"/></g><g id="t"><use transform="matrix(0.06172839506172839,0,0,0.06172839506172839,0,0)" xlink:href="#Q"/><use transform="matrix(0.06172839506172839,0,0,0.06172839506172839,12.345679012345679,0)" xlink:href="#S"/><use transform="matrix(0.06172839506172839,0,0,0.06172839506172839,24.691358024691358,0)" xlink:href="#R"/><use transform="matrix(0.06172839506172839,0,0,0.06172839506172839,30.864197530864196,0)" xlink:href="#S"/><use transform="matrix(0.06172839506172839,0,0,0.06172839506172839,43.20987654320987,0)" xlink:href="#R"/><use transform="matrix(0.06172839506172839,0,0,0.06172839506172839,49.382716049382715,0)" xlink:href="#S"/><use transform="matrix(0.06172839506172839,0,0,0.06172839506172839,61.72839506172839,0)" xlink:href="#R"/><use transform="matrix(0.06172839506172839,0,0,0.06172839506172839,67.90123456790123,0)" xlink:href="#S"/><use transform="matrix(0.06172839506172839,0,0,0.06172839506172839,80.24691358024691,0)" xlink:href="#T"/><use transform="matrix(0.06172839506172839,0,0,0.06172839506172839,86.41975308641975,0)" xlink:href="#U"/></g><path fill="#3a414a" d="M99-251c64 0 84 50 84 122C183-37 130 33 47-8c-14-7-20-23-25-40l30-5c6 39 69 39 84 7 9-19 16-44 16-74-10 22-31 35-62 35-49 0-73-33-73-83 0-54 28-83 82-83zm-1 141c31-1 51-18 51-49 0-36-14-67-51-67-34 0-49 23-49 58 0 34 15 58 49 58" id="W"/><g id="u"><use transform="matrix(0.06172839506172839,0,0,0.06172839506172839,0,0)" xlink:href="#W"/><use transform="matrix(0.06172839506172839,0,0,0.06172839506172839,12.345679012345679,0)" xlink:href="#R"/><use transform="matrix(0.06172839506172839,0,0,0.06172839506172839,18.51851851851852,0)" xlink:href="#S"/><use transform="matrix(0.06172839506172839,0,0,0.06172839506172839,30.864197530864196,0)" xlink:href="#R"/><use transform="matrix(0.06172839506172839,0,0,0.06172839506172839,37.03703703703704,0)" xlink:href="#S"/><use transform="matrix(0.06172839506172839,0,0,0.06172839506172839,49.382716049382715,0)" xlink:href="#R"/><use transform="matrix(0.06172839506172839,0,0,0.06172839506172839,55.55555555555556,0)" xlink:href="#S"/><use transform="matrix(0.06172839506172839,0,0,0.06172839506172839,67.90123456790124,0)" xlink:href="#T"/><use transform="matrix(0.06172839506172839,0,0,0.06172839506172839,74.07407407407408,0)" xlink:href="#U"/></g><g id="v"><use transform="matrix(0.06172839506172839,0,0,0.06172839506172839,0,0)" xlink:href="#R"/><use transform="matrix(0.06172839506172839,0,0,0.06172839506172839,6.172839506172839,0)" xlink:href="#Q"/><use transform="matrix(0.06172839506172839,0,0,0.06172839506172839,18.51851851851852,0)" xlink:href="#S"/><use transform="matrix(0.06172839506172839,0,0,0.06172839506172839,30.864197530864196,0)" xlink:href="#P"/></g><g id="w"><use transform="matrix(0.06172839506172839,0,0,0.06172839506172839,0,0)" xlink:href="#R"/><use transform="matrix(0.06172839506172839,0,0,0.06172839506172839,6.172839506172839,0)" xlink:href="#Q"/><use transform="matrix(0.06172839506172839,0,0,0.06172839506172839,18.51851851851852,0)" xlink:href="#S"/><use transform="matrix(0.06172839506172839,0,0,0.06172839506172839,30.864197530864196,0)" xlink:href="#Q"/></g><g id="x"><use transform="matrix(0.06172839506172839,0,0,0.06172839506172839,0,0)" xlink:href="#R"/><use transform="matrix(0.06172839506172839,0,0,0.06172839506172839,6.172839506172839,0)" xlink:href="#Q"/><use transform="matrix(0.06172839506172839,0,0,0.06172839506172839,18.51851851851852,0)" xlink:href="#S"/><use transform="matrix(0.06172839506172839,0,0,0.06172839506172839,30.864197530864196,0)" xlink:href="#O"/></g><g id="y"><use transform="matrix(0.06172839506172839,0,0,0.06172839506172839,0,0)" xlink:href="#R"/><use transform="matrix(0.06172839506172839,0,0,0.06172839506172839,6.172839506172839,0)" xlink:href="#Q"/><use transform="matrix(0.06172839506172839,0,0,0.06172839506172839,18.51851851851852,0)" xlink:href="#S"/><use transform="matrix(0.06172839506172839,0,0,0.06172839506172839,30.864197530864196,0)" xlink:href="#N"/></g><g id="z"><use transform="matrix(0.06172839506172839,0,0,0.06172839506172839,0,0)" xlink:href="#R"/><use transform="matrix(0.06172839506172839,0,0,0.06172839506172839,6.172839506172839,0)" xlink:href="#Q"/><use transform="matrix(0.06172839506172839,0,0,0.06172839506172839,18.51851851851852,0)" xlink:href="#S"/><use transform="matrix(0.06172839506172839,0,0,0.06172839506172839,30.864197530864196,0)" xlink:href="#M"/></g><g id="A"><use transform="matrix(0.06172839506172839,0,0,0.06172839506172839,0,0)" xlink:href="#R"/><use transform="matrix(0.06172839506172839,0,0,0.06172839506172839,6.172839506172839,0)" xlink:href="#Q"/><use transform="matrix(0.06172839506172839,0,0,0.06172839506172839,18.51851851851852,0)" xlink:href="#S"/><use transform="matrix(0.06172839506172839,0,0,0.06172839506172839,30.864197530864196,0)" xlink:href="#V"/></g><path fill="#3a414a" d="M63-220v92h138v28H63V0H30v-248h175v28H63" id="X"/><use transform="matrix(0.06172839506172839,0,0,0.06172839506172839,0,0)" xlink:href="#X" id="B"/><g id="C"><use transform="matrix(0.06172839506172839,0,0,0.06172839506172839,0,0)" xlink:href="#R"/><use transform="matrix(0.06172839506172839,0,0,0.06172839506172839,6.172839506172839,0)" xlink:href="#Q"/><use transform="matrix(0.06172839506172839,0,0,0.06172839506172839,18.51851851851852,0)" xlink:href="#S"/><use transform="matrix(0.06172839506172839,0,0,0.06172839506172839,30.864197530864196,0)" xlink:href="#L"/></g><path d="M24-248c120-7 223 5 221 122C244-46 201 0 124 0H24v-248zM76-40c74 7 117-18 117-86 0-67-45-88-117-82v168" id="Y"/><path d="M175 0L67-191c6 58 2 128 3 191H24v-248h59L193-55c-6-58-2-129-3-193h46V0h-61" id="Z"/><path d="M169-182c-1-43-94-46-97-3 18 66 151 10 154 114 3 95-165 93-204 36-6-8-10-19-12-30l50-8c3 46 112 56 116 5-17-69-150-10-154-114-4-87 153-88 188-35 5 8 8 18 10 28" id="aa"/><g id="D"><use transform="matrix(0.06172839506172839,0,0,0.06172839506172839,0,0)" xlink:href="#Y"/><use transform="matrix(0.06172839506172839,0,0,0.06172839506172839,15.987654320987653,0)" xlink:href="#Z"/><use transform="matrix(0.06172839506172839,0,0,0.06172839506172839,31.975308641975307,0)" xlink:href="#aa"/></g><path fill="#3a414a" d="M197 0v-115H63V0H30v-248h33v105h134v-105h34V0h-34" id="ab"/><use transform="matrix(0.06172839506172839,0,0,0.06172839506172839,0,0)" xlink:href="#ab" id="E"/><g id="F"><use transform="matrix(0.06172839506172839,0,0,0.06172839506172839,0,0)" xlink:href="#R"/><use transform="matrix(0.06172839506172839,0,0,0.06172839506172839,6.172839506172839,0)" xlink:href="#Q"/><use transform="matrix(0.06172839506172839,0,0,0.06172839506172839,18.51851851851852,0)" xlink:href="#S"/><use transform="matrix(0.06172839506172839,0,0,0.06172839506172839,30.864197530864196,0)" xlink:href="#U"/></g></defs></g></svg>